<svg width="45" height="45" viewBox="0 0 45 45" fill="none" xmlns="http://www.w3.org/2000/svg">
<g clip-path="url(#clip0_16_1206)">
<path d="M18.1934 22.5C18.1934 24.8785 20.1215 26.8066 22.5 26.8066C24.8785 26.8066 26.8066 24.8785 26.8066 22.5C26.8066 20.1215 24.8785 18.1934 22.5 18.1934C20.1215 18.1934 18.1934 20.1215 18.1934 22.5Z" fill="#94B3D2"/>
<path d="M12.4283 14.8803C12.6353 14.3194 12.9656 13.8116 13.3947 13.3948C13.8115 12.9656 14.3189 12.6354 14.8803 12.4283C15.3355 12.2515 16.0194 12.0411 17.2791 11.9837C18.6417 11.9216 19.0503 11.9082 22.5 11.9082C25.95 11.9082 26.3586 11.9212 27.7209 11.9834C28.9805 12.0411 29.6648 12.2515 30.1197 12.4283C30.681 12.6354 31.1888 12.9656 31.6052 13.3948C32.0344 13.8116 32.3647 14.319 32.572 14.8803C32.7488 15.3356 32.9593 16.0198 33.0166 17.2795C33.0788 18.6418 33.0922 19.0503 33.0922 22.5004C33.0922 25.9501 33.0788 26.3587 33.0166 27.7213C32.9593 28.981 32.7488 29.6649 32.572 30.1201C32.3647 30.6814 32.0347 31.1889 31.6056 31.6057C31.1888 32.0348 30.6814 32.3651 30.12 32.5721C29.6648 32.7493 28.9805 32.9597 27.7209 33.0171C26.3586 33.0792 25.9504 33.0922 22.5003 33.0922C19.0499 33.0922 18.6414 33.0792 17.2794 33.0171C16.0198 32.9597 15.3355 32.7493 14.8803 32.5721C13.7535 32.1375 12.8629 31.2469 12.4283 30.1201C12.2514 29.6649 12.041 28.981 11.9833 27.7213C11.9212 26.3587 11.9081 25.9501 11.9081 22.5004C11.9081 19.0503 11.9212 18.6418 11.9833 17.2795C12.0406 16.0198 12.2511 15.3356 12.4283 14.8803ZM22.5 29.1344C26.1643 29.1344 29.1347 26.1643 29.1347 22.5001C29.1347 18.8358 26.1643 15.8657 22.5 15.8657C18.836 15.8657 15.8656 18.8358 15.8656 22.5001C15.8656 26.1643 18.836 29.1344 22.5 29.1344ZM15.6033 17.1538C16.4595 17.1538 17.1537 16.4596 17.1537 15.6034C17.1537 14.7471 16.4595 14.0529 15.6033 14.0529C14.7471 14.0529 14.0529 14.7471 14.0529 15.6034C14.0532 16.4596 14.7471 17.1538 15.6033 17.1538Z" fill="#94B3D2"/>
<path d="M22.5 0C34.9245 0 45 10.0755 45 22.5C45 34.9245 34.9245 45 22.5 45C10.0755 45 0 34.9245 0 22.5C0 10.0755 10.0755 0 22.5 0ZM9.65801 27.8267C9.7205 29.202 9.93919 30.141 10.2585 30.9629C10.9297 32.6984 12.3016 34.0703 14.0371 34.7415C14.8587 35.0608 15.798 35.2792 17.173 35.342C18.5508 35.4048 18.9909 35.4199 22.4997 35.4199C26.0088 35.4199 26.4486 35.4048 27.8267 35.342C29.2017 35.2792 30.141 35.0608 30.9626 34.7415C31.825 34.4171 32.6057 33.9086 33.2512 33.2512C33.9083 32.606 34.4167 31.825 34.7412 30.9629C35.0605 30.1413 35.2792 29.202 35.3416 27.827C35.4052 26.4489 35.4199 26.0088 35.4199 22.5C35.4199 18.9912 35.4052 18.5511 35.342 17.1733C35.2795 15.798 35.0611 14.859 34.7419 14.0371C34.4174 13.175 33.9086 12.394 33.2512 11.7488C32.606 11.0914 31.825 10.5829 30.9629 10.2585C30.141 9.93919 29.202 9.72084 27.8267 9.65801C26.4489 9.59518 26.0088 9.58008 22.5 9.58008C18.9912 9.58008 18.5511 9.59518 17.1733 9.65836C15.798 9.72084 14.859 9.93919 14.0371 10.2581C13.175 10.5826 12.394 11.0914 11.7485 11.7488C11.0914 12.3943 10.5826 13.175 10.2585 14.0371C9.93885 14.859 9.7205 15.798 9.65767 17.1733C9.59484 18.5511 9.58008 18.9912 9.58008 22.5C9.58008 26.0088 9.59484 26.4489 9.65801 27.8267Z" fill="#94B3D2"/>
</g>
<defs>
<clipPath id="clip0_16_1206">
<rect width="45" height="45" fill="white" transform="matrix(-1 0 0 1 45 0)"/>
</clipPath>
</defs>
</svg>
