<svg width="314" height="43" viewBox="0 0 314 43" fill="none" xmlns="http://www.w3.org/2000/svg">
<path d="M9.41998 14.4197H42.32L33.2333 23.5064H0.333313L9.41998 14.4197ZM18.5066 5.33302H61.4333L54.2267 12.5397H11.3L18.5066 5.33302ZM27.9066 41.3664L69.2666 0.00634766H71.7733L35.4267 41.3664H27.9066ZM66.76 0.00634766L63 3.45302H32.6066L36.0533 0.00634766H66.76ZM91.5133 1.25969C98.4066 1.25969 103.107 4.39302 105.927 7.21302L102.167 10.973C99.3466 7.83968 95.5866 6.27302 91.5133 6.27302C83.3666 6.27302 77.4133 12.853 77.4133 21.6264C77.4133 30.3997 83.68 36.9797 91.5133 36.9797C95.5866 36.9797 99.3466 35.0997 102.167 32.2797L105.927 36.0397C103.107 38.8597 98.4066 41.993 91.5133 41.993C79.92 41.993 71.7733 33.533 71.7733 21.6264C71.7733 9.71969 79.92 1.25969 91.5133 1.25969ZM136.007 24.7597V41.6797H130.993V25.3864C130.993 19.7464 128.173 16.9264 124.413 16.9264C120.967 16.9264 117.833 19.1197 116.267 22.253V41.6797H111.253V0.00634766H116.267V15.673C118.773 12.853 122.22 11.5997 125.667 11.5997C131.933 11.5997 136.007 16.613 136.007 24.7597ZM139.14 33.533C139.14 26.953 145.72 23.5064 158.567 23.5064C158.567 18.493 156.06 16.2997 151.673 16.2997C148.853 16.2997 146.347 17.553 144.467 19.433L141.333 16.2997C143.84 13.4797 147.913 11.5997 152.613 11.5997C160.133 11.5997 164.207 15.9864 164.207 24.133V41.6797H159.193V37.6064C156.687 40.7397 153.24 42.3064 149.167 42.3064C143.213 41.993 139.14 38.5464 139.14 33.533ZM158.88 29.773V28.2064C149.48 28.2064 144.467 30.0864 144.467 33.533C144.467 36.0397 146.66 37.293 149.793 37.293C154.807 37.6064 158.88 34.1597 158.88 29.773ZM182.38 16.9264H181.127C176.113 16.9264 173.293 20.373 173.293 26.953V41.6797H168.28V12.2264H173.293V16.2997C174.86 13.4797 177.367 12.2264 181.44 12.2264H182.38V16.9264ZM189.273 33.533V16.9264H185.2V12.2264H189.273V5.33302H194.287V11.913H201.807V16.613H194.287V33.533C194.287 36.353 195.853 37.293 197.107 37.293C198.36 37.293 199.613 36.6664 200.553 35.7264L203.687 38.8597C202.12 40.7397 199.3 41.993 196.793 41.993C192.093 41.993 189.273 39.173 189.273 33.533ZM221.547 11.5997C229.38 11.5997 235.333 17.8664 235.333 26.6397C235.333 35.413 229.693 41.993 221.547 41.993C218.1 41.993 214.653 40.7397 212.147 38.233V41.6797H207.133V0.00634766H212.147V15.673C214.653 13.1664 218.1 11.5997 221.547 11.5997ZM212.147 28.833C212.147 33.533 216.22 37.293 221.233 37.293C226.247 37.293 230.32 32.9064 230.32 26.953C230.32 20.9997 226.56 16.2997 221.233 16.2997C217.473 16.2997 214.027 18.493 212.147 21.9397V28.833ZM237.84 26.953C237.84 18.1797 244.107 11.5997 252.567 11.5997C260.713 11.5997 266.04 17.2397 266.04 26.3264V28.5197H243.167C243.793 33.8464 247.867 37.293 252.88 37.293C256.327 37.293 259.147 35.7264 261.34 33.533L264.787 36.9797C262.593 39.4864 258.52 41.993 252.88 41.993C244.107 41.993 237.84 35.7264 237.84 26.953ZM260.713 23.8197C260.087 19.1197 256.64 16.2997 252.567 16.2997C248.18 16.2997 244.42 19.1197 243.48 23.8197H260.713ZM268.233 33.533C268.233 26.953 274.813 23.5064 287.66 23.5064C287.66 18.493 285.153 16.2997 280.767 16.2997C277.947 16.2997 275.44 17.553 273.56 19.433L270.113 15.9864C272.62 13.1664 276.693 11.2864 281.393 11.2864C288.913 11.2864 292.987 15.673 292.987 23.8197V41.3664H287.973V37.293C285.467 40.4264 282.02 41.993 277.947 41.993C272.307 41.993 268.233 38.5464 268.233 33.533ZM287.66 29.773V28.2064C278.26 28.2064 273.247 30.0864 273.247 33.533C273.247 36.0397 275.44 37.293 278.573 37.293C283.9 37.6064 287.66 34.1597 287.66 29.773ZM299.253 33.533V16.9264H295.18V12.2264H299.253V5.33302H304.267V11.913H311.787V16.613H304.267V33.533C304.267 36.353 305.833 37.293 307.087 37.293C308.34 37.293 309.593 36.6664 310.533 35.7264L313.667 38.8597C312.1 40.7397 309.28 41.993 306.773 41.993C302.073 41.993 299.253 39.173 299.253 33.533Z" fill="#999999"/>
</svg>
