<svg width="334" height="116" viewBox="0 0 334 116" fill="none" xmlns="http://www.w3.org/2000/svg">
<path d="M192.712 37.0851C189.03 35.0802 184.874 34.1122 180.685 34.2842C179.123 34.2396 177.561 34.3687 176.027 34.6692C172.047 35.3086 168.346 37.1109 165.388 39.8491C160.827 44.1928 158.775 49.7066 158.253 55.8357C157.905 59.8401 158.46 63.8714 159.875 67.6334C161.558 72.1393 164.194 75.9357 168.403 78.4023C174.722 82.1056 181.469 82.5271 188.424 80.6274C190.902 79.9875 193.222 78.8439 195.239 77.2679C197.257 75.692 198.927 73.7174 200.148 71.4673C202.099 68.0588 203.286 64.2667 203.626 60.3538C203.966 56.441 203.451 52.501 202.116 48.8071C200.603 43.8372 197.236 39.64 192.712 37.0851ZM191.265 67.9256C190.319 69.4022 189.034 70.6307 187.515 71.5078C185.997 72.3849 184.291 72.885 182.539 72.9663C182.027 73.0089 181.516 73.0746 181.2 73.1085C175.101 72.9735 170.887 70.3122 168.79 64.437C167.863 62.0241 167.463 59.441 167.616 56.8608C167.769 54.2806 168.472 51.763 169.677 49.4765C170.58 47.6079 171.973 46.0195 173.708 44.881C175.443 43.7425 177.455 43.0967 179.528 43.0124C182.622 42.6072 185.758 43.331 188.361 45.0512C191.104 47.0708 192.986 50.0485 193.635 53.3925C194.296 55.8442 194.426 58.4087 194.017 60.9147C193.609 63.4208 192.67 65.8109 191.264 67.9256L191.265 67.9256Z" fill="#999999"/>
<path d="M279.116 57.0905C276.383 55.5765 273.501 54.348 270.516 53.4242C268.311 52.7563 266.163 51.9108 264.094 50.8959C263.032 50.42 262.151 49.6165 261.58 48.6032C260.566 46.518 261.862 44.1273 264.334 43.4077C266.46 42.8754 268.682 42.8486 270.82 43.3294C273.468 43.8485 276.055 44.6391 278.54 45.6888C279.856 46.218 280.305 46.0333 280.869 44.7191C281.552 43.1317 282.226 41.541 282.892 39.9469C283.358 38.8279 283.148 38.3491 282.063 37.8651C280.624 37.2233 279.144 36.6737 277.635 36.2197C272.845 34.7767 268.005 33.7285 262.965 34.6726C257.255 35.7422 252.833 39.5881 252.049 45.6508C251.338 51.1561 253.341 55.4177 258.11 58.2082C261.064 59.7577 264.183 60.9711 267.407 61.8254C269.524 62.3704 271.546 63.2316 273.405 64.3798C274.357 64.9403 275.074 65.8272 275.422 66.8758C275.635 67.8614 275.503 68.8904 275.049 69.7907C274.595 70.691 273.846 71.4082 272.926 71.8224C270.461 73.0914 267.839 73.0405 265.197 72.6552C262.119 72.1189 259.13 71.1577 256.316 69.7992C255.202 69.3008 254.765 69.4609 254.184 70.5386C253.306 72.167 252.434 73.7992 251.584 75.4421C251.041 76.4901 251.239 77.0426 252.288 77.5764C257.596 80.2592 263.479 81.6067 269.426 81.502C272.734 81.4295 275.967 80.5028 278.812 78.8117C281.113 77.4806 282.956 75.4838 284.1 73.0842C285.244 70.6847 285.635 67.995 285.22 65.3693C284.614 61.5815 282.307 58.9894 279.116 57.0905V57.0905Z" fill="#999999"/>
<path d="M240.624 59.1092C238.102 56.7584 234.972 55.5126 231.817 54.3101C228.875 53.1887 225.798 52.4174 222.992 50.9408C221.898 50.4642 220.986 49.6478 220.392 48.6126C219.368 46.5368 220.666 44.1289 223.131 43.4097C225.257 42.8747 227.478 42.8465 229.617 43.3274C232.324 43.8615 234.967 44.6743 237.506 45.7531C238.614 46.2006 239.117 45.9891 239.594 44.8935C240.32 43.2259 241.031 41.5518 241.727 39.8711C242.161 38.8207 241.932 38.3413 240.88 37.8704C239.44 37.2277 237.961 36.6778 236.451 36.2238C231.662 34.7792 226.823 33.7317 221.783 34.6716C216.069 35.737 211.637 39.5881 210.859 45.641C210.148 51.1691 212.148 55.4202 216.908 58.2043C219.862 59.754 222.98 60.968 226.204 61.8235C228.32 62.369 230.343 63.229 232.203 64.3747C233.156 64.9339 233.875 65.8188 234.226 66.8661C234.442 67.8512 234.314 68.8807 233.862 69.7822C233.41 70.6837 232.661 71.4025 231.743 71.8182C229.278 73.092 226.655 73.0401 224.014 72.6571C220.906 72.1164 217.888 71.1433 215.049 69.7661C214.029 69.3077 213.582 69.4685 213.046 70.4534C212.146 72.1046 211.263 73.7646 210.396 75.4333C209.849 76.4847 210.045 77.0412 211.086 77.5719C216.095 80.1493 221.646 81.495 227.279 81.4974C228.278 81.5245 229.276 81.4613 230.263 81.3086C230.893 81.238 231.516 81.0918 232.139 80.9659C238.319 79.717 243.751 74.9972 244.141 68.3668C244.313 66.6566 244.085 64.9299 243.474 63.3232C242.864 61.7164 241.888 60.2738 240.624 59.1092V59.1092Z" fill="#999999"/>
<path d="M333.262 79.6071C332.335 77.531 331.402 75.4576 330.464 73.3869C324.783 60.7846 319.102 48.182 313.423 35.5789C313.145 34.9608 312.806 34.4498 312.034 34.4803C311.316 34.5087 311.007 35.0081 310.745 35.5905C304.16 50.246 297.572 64.9003 290.982 79.5532C290.524 80.5714 290.769 80.9571 291.892 80.9607C294.261 80.9683 296.629 80.9643 298.997 80.9627C300.423 80.9618 300.771 80.7194 301.31 79.3857C302.458 76.5481 303.622 73.7172 304.745 70.8699C304.798 70.6545 304.929 70.4665 305.113 70.342C305.296 70.2176 305.519 70.1657 305.739 70.1964C307.864 70.2256 309.99 70.2084 312.115 70.2084C314.21 70.2084 316.306 70.2329 318.4 70.1933C318.65 70.159 318.905 70.219 319.113 70.3615C319.322 70.504 319.471 70.7189 319.53 70.9647C320.674 73.836 321.864 76.6894 323.042 79.5473C323.527 80.7232 323.887 80.9603 325.182 80.962C327.581 80.9654 329.979 80.969 332.378 80.9602C333.448 80.9563 333.694 80.5764 333.262 79.607V79.6071ZM315.643 62.8975C313.308 62.8749 310.972 62.8888 308.637 62.8891C308.27 62.8892 307.948 62.9023 308.176 62.3463C309.474 59.1846 310.752 56.0146 312.04 52.8484C312.048 52.8273 312.091 52.8201 312.193 52.7682C313.063 54.9218 313.931 57.0714 314.798 59.2172C315.205 60.2276 315.596 61.2449 316.017 62.2497C316.191 62.6654 316.249 62.9032 315.643 62.8974L315.643 62.8975Z" fill="#999999"/>
<path d="M151.422 35.0322C142.221 35.0311 133.021 35.031 123.82 35.0318C122.24 35.0318 121.951 35.3153 121.951 36.865C121.951 43.9097 121.95 50.9542 121.951 57.9988C121.951 65.0131 121.951 72.0273 121.951 79.0415C121.951 80.7141 122.206 80.9632 123.914 80.9634C125.736 80.9636 127.558 80.9635 129.38 80.9632C130.881 80.9624 131.227 80.6093 131.227 79.0696C131.229 73.9683 131.229 68.8671 131.228 63.7658C131.228 62.5691 131.229 62.5688 132.467 62.5688C137.295 62.5684 142.123 62.5672 146.951 62.5652C147.998 62.5637 148.371 62.1889 148.378 61.1397C148.39 59.409 148.382 57.6781 148.382 55.9473C148.381 54.3607 148.05 54.023 146.481 54.0225C141.683 54.0212 136.886 54.0093 132.088 54.0364C131.412 54.0403 131.204 53.8557 131.213 53.1692C131.249 50.3457 131.273 47.5204 131.203 44.6982C131.18 43.7501 131.466 43.5559 132.366 43.5615C138.712 43.6015 145.059 43.5836 151.405 43.582C152.859 43.5816 153.146 43.2891 153.148 41.8173C153.15 40.1168 153.15 38.4164 153.148 36.716C153.145 35.3186 152.851 35.0324 151.422 35.0322L151.422 35.0322Z" fill="#999999"/>
<path d="M55.6605 89.8871C57.9505 85.9212 60.6485 82.2221 63.1493 78.3942C64.6878 76.2177 65.6455 73.6847 65.932 71.0348C65.9279 69.9998 65.6857 68.9797 65.2241 68.0533C64.7625 67.127 64.0939 66.3192 63.2702 65.6926C60.7502 63.8096 58.043 64.0768 55.2955 64.9462C52.2171 65.8861 49.0559 66.5294 45.855 66.8674C41.6761 67.2347 37.6112 68.4259 33.895 70.3721C32.6451 71.0664 32.505 71.654 33.6218 72.5069C36.3337 74.7292 38.0616 77.93 38.4315 81.4165C38.9741 85.2284 39.084 89.0894 38.759 92.926C38.5215 97.1512 38.0442 101.353 37.6827 105.566C37.2836 108.524 37.314 111.523 37.7729 114.471C37.9882 115.531 38.4686 115.864 39.4524 115.686C42.5764 115.142 45.6601 114.388 48.6825 113.428C48.8819 113.4 49.0729 113.329 49.2426 113.221C49.4124 113.112 49.5571 112.969 49.6671 112.8C49.777 112.631 49.8496 112.441 49.8801 112.242C49.9106 112.043 49.8982 111.84 49.8438 111.646C49.5993 109.539 49.6073 107.411 49.8678 105.307C50.7457 99.8304 52.7157 94.5867 55.6607 89.8871H55.6605Z" fill="#999999"/>
<path d="M91.0312 78.1655C90.1408 77.6838 89.3269 77.0727 88.6161 76.3519C86.2648 73.7199 84.6213 70.5334 83.84 67.0917C82.922 63.2574 82.3353 59.3513 82.0862 55.4165C81.5138 49.584 78.4718 44.8376 75.4053 40.1043C74.7846 39.1461 74.0141 39.2509 73.4406 40.326C72.4289 42.192 71.745 44.2178 71.4186 46.3152C71.0817 49.2184 70.1566 52.0224 68.6998 54.5562C67.2431 57.0899 65.2852 59.3002 62.9458 61.0521C61.8247 61.8896 61.8803 62.5436 63.1662 63.2037C65.5003 64.4187 67.2901 66.4696 68.178 68.9468C69.8235 73.5491 70.1888 78.5118 69.235 83.3054C68.6141 86.768 68.2034 90.2649 68.0053 93.7771C68.0764 96.2207 68.4014 98.6502 68.975 101.027C69.4478 102.535 69.8348 102.703 71.079 101.787C79.1292 95.8605 86.0478 88.5349 91.5045 80.1595C92.1074 79.2393 91.9091 78.6582 91.0312 78.1654L91.0312 78.1655Z" fill="#999999"/>
<path d="M8.54784 47.7065C8.71347 47.9489 8.95 48.1343 9.22503 48.2371C9.50007 48.3399 9.80016 48.3551 10.0842 48.2808C12.8276 47.5015 14.8272 48.6613 16.6043 50.6126C17.5361 51.6357 18.215 51.4866 18.747 50.2174C19.8224 47.7408 21.1884 45.4008 22.8162 43.2466C26.6124 37.9633 29.7359 32.2279 32.1147 26.1726C34.8827 19.3659 39.6867 15.0505 47.3169 14.3958C49.0131 14.494 50.6976 14.0592 52.1344 13.1523C52.5252 12.834 52.9043 12.5102 52.7379 11.9618C52.6639 11.7569 52.5287 11.5796 52.3507 11.454C52.1726 11.3283 51.9603 11.2604 51.7424 11.2593C49.64 10.9767 47.5137 10.9161 45.3986 11.0784C40.5198 11.4165 35.6988 12.7814 31.2179 11.8633C27.6054 11.9205 24.6244 12.4504 22.146 14.6149C20.163 16.3497 18.5801 18.4942 17.5065 20.9002C16.4329 23.3063 15.8942 25.9166 15.9275 28.5511C15.8398 32.2708 14.7872 35.9038 12.8728 39.0942C11.4622 41.5043 10.0893 43.9367 8.72196 46.3718C8.49779 46.771 8.16043 47.2184 8.54784 47.7065H8.54784Z" fill="#999999"/>
<path d="M55.4621 62.8251C62.8857 60.014 67.9305 55.1138 69.2763 47.0268C69.7844 42.742 71.6073 38.7199 74.4944 35.5133C74.7071 35.3479 74.8475 35.1065 74.8863 34.8399C74.9251 34.5732 74.8593 34.3019 74.7026 34.0827C74.3145 33.5172 73.8037 33.6737 73.2799 33.8408C70.9833 34.5656 68.7686 35.5278 66.6715 36.7118C64.3649 37.8625 62.572 39.8343 61.6453 42.2396C60.9999 43.7528 60.0459 45.1147 58.8444 46.2384C55.7131 49.2796 51.7394 51.3085 47.4398 52.0615C43.0861 52.878 39.189 55.278 36.5004 58.7983C34.9149 60.9809 33.4446 63.2449 32.0955 65.5811C28.049 72.4513 19.3729 76.0829 12.4 73.7723C11.2781 73.3445 10.0543 73.2605 8.88446 73.5309C8.27123 73.6891 7.42054 73.5065 7.21595 74.3805C6.99773 75.3131 7.79056 75.6062 8.39577 75.9728C11.0394 77.3754 13.9896 78.1004 16.9822 78.083C18.9736 77.9922 20.8855 77.2742 22.4442 76.0314C23.7019 75.0601 24.9459 74.0711 26.2029 73.099C31.5863 68.6653 38.1186 65.8522 45.0389 64.9875C48.5917 64.7168 52.0948 63.99 55.4621 62.8251Z" fill="#999999"/>
<path d="M10.5504 70.5548C12.1327 71.9408 14.1972 72.648 16.2971 72.523C19.1323 72.5562 21.9259 71.8394 24.3948 70.4453C26.8638 69.0511 28.9203 67.0291 30.3561 64.5841C31.504 62.6907 32.7012 60.8254 33.9274 58.9816C36.6043 54.7308 40.8251 51.6834 45.7024 50.4804C47.0075 50.1567 48.3193 49.8436 49.5975 49.4312C55.3593 47.5719 59.7154 44.2766 60.9131 37.9438C61.398 34.2646 61.3501 30.5347 60.7709 26.8692C60.7133 26.2903 60.7632 25.6455 60.0155 25.4887C59.3062 25.3401 59.002 25.9 58.6782 26.3813C56.9005 29.0853 54.6509 31.4474 52.0369 33.3548C51.6936 33.6125 51.44 33.9715 51.3118 34.381C50.3656 37.2412 48.4998 39.7079 46.0051 41.3966C43.5104 43.0854 40.527 43.9013 37.5201 43.7172C32.7404 43.2303 31.5999 45.3105 30.8295 48.8575C30.2293 51.6298 29.4476 54.3596 28.4893 57.0293C28.0299 58.5098 27.166 59.8326 25.995 60.8484C24.824 61.8643 23.3925 62.5327 21.8619 62.7785C19.7679 63.1437 17.8065 64.0525 16.1741 65.414C14.6642 66.6995 12.9041 67.658 11.0049 68.2289C9.49361 68.6887 9.3462 69.4793 10.5504 70.5548H10.5504Z" fill="#999999"/>
<path d="M44.3945 16.9832C39.1813 18.3562 36.0976 22.0516 34.1247 26.7745C31.7051 33.0195 28.4667 38.9155 24.4945 44.3077C22.1579 47.025 20.5361 50.2824 19.7761 53.7846C19.4066 55.9601 20.3434 58.0472 20.2901 60.2213C20.2725 60.9366 21.1462 60.8676 21.7114 60.7471C22.7406 60.6024 23.7123 60.1851 24.5259 59.5385C25.3396 58.892 25.9656 58.0396 26.3392 57.0698C27.5021 53.86 28.4551 50.5779 29.1922 47.2443C29.9291 43.3142 31.2707 39.5219 33.1692 36.0027C33.9287 34.5064 35.1629 33.3043 36.6787 32.5846C38.1944 31.8649 39.9061 31.6682 41.5456 32.0254C43.3597 32.2619 45.0499 33.1171 46.9994 33.0184C47.8305 33.0486 48.6593 32.9136 49.4378 32.6212C50.2164 32.3288 50.9291 31.8848 51.5349 31.315C56.7109 27.1866 59.6283 21.6264 61.6335 15.4768C61.7313 15.2833 61.7605 15.0622 61.7162 14.8499C61.6719 14.6375 61.5568 14.4466 61.3897 14.3082C61.2136 14.1747 60.9996 14.1006 60.7787 14.0968C60.5577 14.093 60.3413 14.1597 60.1607 14.2872C57.143 16.1808 53.762 16.1838 50.383 16.1896C48.3611 16.1966 46.3484 16.4634 44.3945 16.9834L44.3945 16.9832Z" fill="#999999"/>
<path d="M70.6367 21.7324C71.8169 22.6291 71.7401 23.2456 70.4153 23.9544C70.2034 24.0678 69.9746 24.1525 69.7712 24.2788C68.497 25.0695 67.0776 25.8213 67.1133 27.5813C67.1493 29.3435 68.459 30.26 69.8447 31.0167C70.3102 31.2628 70.8088 31.4406 71.325 31.5445C73.6887 31.8441 76.0765 31.2171 77.9881 29.7949C79.5169 29.0433 80.7821 27.8462 81.617 26.3612C82.4519 24.8762 82.8172 23.1731 82.6648 21.4764C82.5744 18.5207 83.5537 15.6317 85.4226 13.3401C86.7408 11.4963 87.6488 9.39147 88.0855 7.16736C88.3347 6.07668 88.1736 4.93244 87.6329 3.95297C87.0923 2.97349 86.2099 2.22735 85.1542 1.85694C83.8502 1.33861 82.4553 1.08777 81.0524 1.11935C78.7125 1.18408 76.4136 1.74984 74.3108 2.77844C72.208 3.80705 70.3503 5.27458 68.8628 7.0821C67.4431 8.71251 66.5963 10.763 66.4521 12.9201C66.3079 15.0772 66.874 17.2222 68.0641 19.0271C68.7622 20.068 69.6322 20.9828 70.6367 21.7324L70.6367 21.7324Z" fill="#999999"/>
<path d="M67.663 78.7231C67.6769 78.0887 67.5286 77.5241 66.8774 77.3434C66.2495 77.1691 65.9406 77.673 65.6586 78.1403C65.2864 78.7571 64.921 79.3794 64.5197 79.9772C61.7052 84.1699 58.7803 88.2916 56.3682 92.7415C53.5582 97.4709 51.9849 102.832 51.7935 108.33C51.7562 109.099 51.762 109.869 51.8108 110.638C51.9234 111.633 52.4347 112.105 53.5031 111.666C58.1318 109.767 62.5789 107.452 66.7896 104.75C66.9506 104.676 67.095 104.569 67.2144 104.438C67.3338 104.306 67.4258 104.152 67.485 103.985C67.5442 103.818 67.5694 103.64 67.5592 103.463C67.5489 103.286 67.5034 103.112 67.4253 102.953C65.8282 97.589 65.5708 91.9155 66.6758 86.4294C67.1914 83.888 67.5214 81.3124 67.6632 78.7231H67.663Z" fill="#999999"/>
<path d="M98.3337 63.453C93.6961 61.095 89.4852 57.9788 85.8747 54.2329C85.6288 53.9325 85.2847 53.7286 84.9031 53.6572C84.2576 53.6394 83.8463 54.1698 83.9271 54.9537C83.986 55.525 84.0934 56.0912 84.1568 56.6622C84.4197 60.8315 85.193 64.9527 86.4594 68.9337C87.3646 72.0049 89.3066 74.6673 91.9546 76.4672C92.8101 76.9935 93.4735 76.9626 93.9923 76.0434C95.9593 72.5738 97.6424 68.9508 99.0252 65.2098C99.1123 65.0519 99.1635 64.8768 99.1751 64.6968C99.1868 64.5169 99.1585 64.3366 99.0925 64.1688C99.0265 64.001 98.9242 63.8499 98.793 63.7262C98.6619 63.6024 98.505 63.5092 98.3337 63.453L98.3337 63.453Z" fill="#999999"/>
<path d="M9.21921 12.9391C9.44044 15.3958 9.96384 17.8159 10.7776 20.1445C10.8122 20.286 10.8787 20.4178 10.9719 20.5299C11.0651 20.6419 11.1826 20.7312 11.3155 20.7911C11.4483 20.851 11.5931 20.8798 11.7387 20.8754C11.8844 20.871 12.0272 20.8335 12.1562 20.7658C12.6938 20.3953 13.1326 19.8988 13.434 19.3196C13.7355 18.7405 13.8905 18.0963 13.8855 17.4433C13.3774 15.6363 13.2247 13.7478 13.4358 11.8825C13.9687 9.72673 14.0395 7.5152 14.3793 5.33763C14.66 3.95117 14.4037 2.50984 13.6621 1.30518C13.4356 0.932322 13.1013 0.636886 12.7034 0.457802C12.3056 0.278718 11.8628 0.224393 11.4334 0.302004C10.5908 0.398238 10.2394 0.996833 10.0186 1.74137C9.72943 2.70775 9.55415 3.7046 9.49636 4.71167C9.41108 6.21469 9.73652 7.68131 9.78168 9.17104C9.82283 10.5332 8.92199 11.7524 9.21921 12.9391Z" fill="#999999"/>
<path d="M8.06655 65.9078C8.1878 66.092 8.34627 66.2487 8.53176 66.3679C8.71724 66.4872 8.92564 66.5663 9.14353 66.6001C9.36143 66.634 9.584 66.6218 9.79692 66.5645C10.0098 66.5071 10.2084 66.4058 10.3798 66.2671C11.0907 65.695 10.1937 65.1744 9.89156 64.7232C8.73176 63.2799 8.17554 61.4437 8.33944 59.5994C8.39493 58.9672 8.66362 58.3726 9.10144 57.9131C9.53927 57.4537 10.1202 57.1567 10.749 57.0708C11.9548 56.8382 12.6368 57.5265 13.0585 58.5737C13.2239 58.9843 13.4376 59.4017 13.986 59.3106C14.2996 59.28 14.5969 59.1566 14.8399 58.9562C15.0829 58.7557 15.2606 58.4873 15.3502 58.1853C15.5688 57.5068 15.505 56.736 16.0247 56.1535C16.3647 55.7726 16.8636 55.4498 16.509 54.7988C16.1807 54.1959 15.626 54.1451 15.0364 54.0827C12.9538 53.9987 10.8985 54.5797 9.16806 55.7414C7.02097 56.9288 5.971 56.777 4.0617 55.2229C3.80493 55.0055 3.52048 54.823 3.21578 54.6802C2.79509 54.4978 2.32022 54.4847 1.89012 54.6437C1.46002 54.8028 1.10786 55.1216 0.907017 55.5338C0.62913 56.5964 1.50642 56.662 2.16378 56.9087C2.59979 57.0133 3.00842 57.2099 3.36232 57.4852C3.71622 57.7605 4.00723 58.1082 4.21587 58.5051C4.42451 58.902 4.54597 59.3388 4.57211 59.7864C4.59824 60.234 4.52846 60.6821 4.36743 61.1005C4.11892 61.8161 3.99899 62.57 4.01318 63.3274C3.93357 63.6892 3.93952 64.0646 4.03056 64.4238C4.12161 64.7829 4.29522 65.1158 4.5376 65.396C4.87649 65.7107 5.33628 66.1666 5.7748 65.6738C6.70127 64.6324 7.33807 64.9458 8.06655 65.9078V65.9078Z" fill="#999999"/>
<path d="M63.3074 34.7149C63.2997 35.6858 63.8594 36.0108 64.7488 35.5493C65.6448 35.0844 66.5297 34.5985 67.4037 34.0915C68.5161 33.4435 68.6092 32.7638 67.586 31.9842C64.699 29.7847 64.0807 25.9795 67.3217 23.5755C68.1743 22.9431 68.128 22.3051 67.4203 21.5293C66.4066 20.4276 65.6265 19.1321 65.1268 17.7208C64.9394 17.1874 64.7604 16.7156 64.0853 16.7298C63.332 16.7456 63.1826 17.2931 63.0319 17.8821C62.7208 19.5861 62.6102 21.3206 62.7023 23.0502C62.6191 26.9531 63.3383 30.8133 63.3074 34.7149H63.3074Z" fill="#999999"/>
<path d="M16.683 13.6624C16.755 13.8564 16.8765 14.0282 17.0355 14.1606C17.1944 14.2931 17.3853 14.3816 17.5891 14.4174C17.7928 14.4532 18.0025 14.435 18.197 14.3647C18.3916 14.2943 18.5644 14.1742 18.6981 14.0164C19.4134 13.454 20.1655 12.9401 20.9495 12.4783C21.743 12.0189 21.9528 11.4013 21.4495 10.6987C20.2377 8.91488 19.1952 7.02172 18.3355 5.04393C18.2705 4.8347 18.139 4.65238 17.961 4.52459C17.783 4.3968 17.5682 4.33049 17.3491 4.33574C16.7722 4.36256 16.515 4.6908 16.4363 5.24305C16.0563 7.16885 15.8661 9.12729 15.8686 11.0902C15.9201 12.0023 16.2002 12.8869 16.683 13.6624Z" fill="#999999"/>
<path d="M13.82 64.9927C15.6278 64.0524 17.1011 62.5767 18.0384 60.7673C18.4336 60.0391 18.5617 59.1956 18.4007 58.3829C18.2604 57.8806 18.113 57.2145 17.5054 57.1962C16.8008 57.1752 17.0446 57.9166 16.9274 58.3247C16.8085 58.8317 16.5812 59.3069 16.2613 59.7177C15.9413 60.1285 15.5363 60.4652 15.0739 60.7047C14.6115 60.9442 14.1028 61.0807 13.5826 61.105C13.0625 61.1293 12.5433 61.0407 12.0606 60.8453C11.8854 60.7591 11.6937 60.7119 11.4986 60.7068C11.3034 60.7017 11.1095 60.7389 10.9301 60.8158C10.7507 60.8928 10.59 61.0076 10.4592 61.1525C10.3284 61.2975 10.2305 61.469 10.1723 61.6553C9.82795 62.6044 12.0605 65.1509 13.2482 65.1511C13.4466 65.1322 13.6402 65.0786 13.82 64.9927V64.9927Z" fill="#999999"/>
<path d="M12.5584 23.7193C11.1306 25.3637 10.2221 27.3943 9.94777 29.5547C9.75612 30.6487 11.4789 32.7002 12.5781 32.578C13.9846 32.4217 13.716 31.1024 13.8124 30.1776C14.0114 28.2705 14.0859 26.3504 14.2117 24.4357C14.2732 24.3314 14.3109 24.2149 14.322 24.0944C14.3331 23.9739 14.3173 23.8524 14.2759 23.7387C14.2344 23.6251 14.1683 23.522 14.0822 23.4369C13.9962 23.3518 13.8923 23.2868 13.7782 23.2467C13.2282 22.9631 12.8986 23.3542 12.5584 23.7193V23.7193Z" fill="#999999"/>
<path d="M11.3437 50.1126C10.3819 50.4745 9.3213 50.4743 8.3596 50.112C7.20581 50.1039 6.51345 50.9983 5.6546 51.5734C4.99628 52.0143 4.50081 52.6256 5.01625 53.3726C5.51899 54.1014 6.18246 54.936 7.26632 54.443C9.06892 53.4421 10.9747 52.6396 12.9502 52.0494C13.1418 52.006 13.3098 51.8918 13.4207 51.7297C13.5316 51.5676 13.5771 51.3696 13.5482 51.1753C13.5478 50.9817 13.483 50.7938 13.364 50.6411C13.245 50.4885 13.0785 50.3798 12.8909 50.3322C12.4104 50.1005 11.8698 50.0238 11.3437 50.1126Z" fill="#999999"/>
<path d="M5.52506 67.7611C4.25969 67.3144 3.05988 66.7002 1.95766 65.9349C1.81578 65.802 1.63176 65.7233 1.43771 65.7123C1.24366 65.7013 1.05191 65.7588 0.895947 65.8748C0.73843 65.9892 0.623653 66.1531 0.569825 66.3402C0.515997 66.5273 0.526201 66.7271 0.598819 66.9078C0.813004 67.7458 1.192 68.5327 1.71368 69.2225C2.23535 69.9124 2.88925 70.4915 3.63719 70.9259C5.16838 71.7204 6.32757 70.9862 6.34082 69.208C6.40256 68.909 6.35396 68.5977 6.20401 68.3317C6.05405 68.0657 5.81287 67.863 5.52506 67.7611Z" fill="#999999"/>
<path d="M5.91292 45.5883C6.03525 45.6696 6.17336 45.7242 6.31824 45.7486C6.46311 45.7729 6.61149 45.7664 6.75368 45.7295C6.89588 45.6926 7.02869 45.6261 7.14344 45.5344C7.2582 45.4427 7.35233 45.3278 7.41967 45.1973C7.87113 44.5156 8.27568 43.8039 8.63053 43.0673C8.96024 42.3489 8.06885 40.2808 7.28336 40.2223C6.97749 40.2146 6.86082 40.6181 6.71463 40.962C6.28254 41.9782 5.9233 43.0297 5.42842 44.0135C5.34351 44.1455 5.28844 44.2944 5.26706 44.4498C5.24569 44.6053 5.25852 44.7635 5.30466 44.9135C5.35081 45.0635 5.42914 45.2016 5.53421 45.3181C5.63927 45.4347 5.76852 45.5269 5.91292 45.5883V45.5883Z" fill="#999999"/>
<path d="M3.56424 51.0869C3.95328 50.9357 4.30272 50.6978 4.58598 50.3913C4.86924 50.0847 5.07885 49.7176 5.19887 49.3179C5.3189 48.9181 5.34617 48.4963 5.27862 48.0844C5.21106 47.6726 5.05046 47.2815 4.80903 46.9411C4.33741 46.3464 3.93568 46.4177 3.64415 47.0825C3.26446 47.8606 3.00247 48.6908 2.86675 49.5459C2.81751 51.0367 2.9724 51.2817 3.56424 51.0869V51.0869Z" fill="#999999"/>
<path d="M56.2957 14.0939C57.0687 14.0371 57.798 13.7135 58.3588 13.1785C57.8724 12.5684 57.1816 12.1551 56.4141 12.0151C56.0277 11.8891 55.5676 11.3944 55.1524 11.9883C55.0105 12.1851 54.9232 12.4159 54.8994 12.6574C54.8755 12.8988 54.916 13.1423 55.0166 13.363C55.1096 13.616 55.2888 13.8281 55.5228 13.9619C55.7568 14.0956 56.0305 14.1424 56.2957 14.0941L56.2957 14.0939Z" fill="#999999"/>
<path d="M1.92315 60.5683C1.61065 60.4736 1.46873 60.6934 1.47836 60.9534C1.51754 62.005 1.11981 63.1547 2.35518 64.3026C2.31437 63.3248 2.39223 62.3458 2.58706 61.3868C2.59551 61.1929 2.53263 61.0025 2.41031 60.8517C2.28799 60.7009 2.1147 60.6001 1.92315 60.5684L1.92315 60.5683Z" fill="#999999"/>
<path d="M7.83107 69.8711C7.67779 70.5664 6.66223 71.1554 7.59142 71.8649C7.99493 72.173 8.74332 72.1803 8.89391 71.814C9.25924 70.9247 8.15655 70.5815 7.83107 69.8711H7.83107Z" fill="#999999"/>
<path d="M15.8086 17.1465C15.9148 17.126 16.0144 17.08 16.0989 17.0124C16.1833 16.9448 16.25 16.8576 16.2931 16.7584C16.3362 16.6592 16.3545 16.5509 16.3463 16.4431C16.3382 16.3352 16.3038 16.231 16.2463 16.1394C15.9416 15.5427 15.5218 15.0123 15.0112 14.5786C15.124 15.3249 15.1975 15.9121 15.3069 16.4924C15.3626 16.7871 15.3431 17.2847 15.8086 17.1465Z" fill="#999999"/>
</svg>
