<svg width="314" height="128" viewBox="0 0 314 128" fill="none" xmlns="http://www.w3.org/2000/svg">
<path d="M27.5119 40.5252H0.684265V0.875977H32.0176V13.1054H36.9495V0.875977H68.9095V13.1054H73.2491V0.875977H105.403V40.5252H77.9867V31.451H96.3324V10.1444H82.3264V22.1764H59.8667V10.1444H46.0581V22.1764H22.9779V10.1444H9.73333V31.451H27.4868L27.5119 40.5252ZM96.1319 57.6864V108.186C96.1277 110.749 95.108 113.205 93.2961 115.017C91.4842 116.829 89.0279 117.849 86.4655 117.853H19.8227C17.2603 117.849 14.804 116.829 12.9921 115.017C11.1802 113.205 10.1605 110.749 10.1563 108.186V57.6864H96.1663H96.1319ZM105.24 48.6123H0.881664V108.186C0.881664 118.642 9.3636 127.124 19.8195 127.124H86.2963C96.7523 127.124 105.234 118.642 105.234 108.186V57.6864L105.24 48.6123ZM53.1551 76.2295C58.6791 76.2295 63.0188 80.7666 63.0188 86.0932V96.5492H43.0908V86.0901C43.0908 80.566 47.6279 76.2264 53.1175 76.2264L53.1551 76.2295ZM53.1175 66.9517C42.6615 66.9517 33.9822 75.4336 33.9822 86.087V105.617H72.0867V86.0901C72.0867 75.6342 63.6047 66.9548 53.1488 66.9548L53.1175 66.9517ZM134.033 86.3282H129.019V41.672H150.326C159.507 41.672 165.36 47.1647 165.36 55.6278C165.36 64.2696 159.594 67.1522 154.556 68.3178L166.259 86.3251H160.227L149.424 69.2171H134.064L134.033 86.3282ZM134.033 64.3949H149.427C154.199 64.3949 160.321 62.5932 160.321 55.6623C160.321 50.0223 156.091 46.4816 149.668 46.4816H134.001L134.033 64.3949ZM216.803 64.0001C216.803 76.6901 207.71 86.8672 194.117 86.8672C180.644 86.8672 171.432 76.6932 171.432 64.0001C171.432 51.307 180.525 41.133 194.117 41.133C207.71 41.133 216.803 51.307 216.803 64.0001ZM211.789 64.0001C211.789 53.917 205.037 46.0837 194.233 46.0837C183.339 46.0837 176.677 54.011 176.677 64.0001C176.677 74.0832 183.43 81.9165 194.233 81.9165C205.037 81.9165 211.789 74.0832 211.789 64.0001ZM267.882 64.0001C267.882 76.6901 258.789 86.8672 245.197 86.8672C231.605 86.8672 222.512 76.6932 222.512 64.0001C222.512 51.307 231.605 41.133 245.197 41.133C258.789 41.133 267.882 51.307 267.882 64.0001ZM262.75 64.0001C262.75 53.917 255.998 46.0837 245.194 46.0837C234.299 46.0837 227.638 54.011 227.638 64.0001C227.638 74.0832 234.39 81.9165 245.194 81.9165C256.089 81.9165 262.75 74.0832 262.75 64.0001ZM293.237 59.5884L313.313 86.3282H307.046L289.581 63.1008L280.306 71.7426V86.3282H275.293V41.672H280.306V64.8994L305.153 41.672H312.266L293.237 59.5884Z" fill="#999999"/>
</svg>
