<svg width="342" height="116" viewBox="0 0 342 116" fill="none" xmlns="http://www.w3.org/2000/svg">
<path d="M0.0321045 28.628V77.2335C0.0321045 95.6888 3.33386 100.185 7.42677 100.93C7.92811 101.02 8.43329 101.059 8.95421 101.059C11.5784 101.059 17.7081 99.7388 21.1234 87.4287C22.6509 81.9571 23.0308 70.8612 23.0308 63.4783V16.3062L0.0398738 28.628" fill="#999999"/>
<path d="M32.7479 64.854V65.3321L32.7439 65.4808V66.7344C32.74 66.7814 32.74 66.8245 32.74 66.8755V67.0007L32.7361 67.0791V67.498L32.7322 67.7016V67.8307L32.7283 67.9091V68.3284L32.7205 68.524V68.7358L32.7165 68.9313V69.1001V69.3817V69.5462V69.6365L32.7087 69.8326V70.0907L32.7009 70.2868L32.6969 70.4551L32.693 70.5449L32.689 70.741L32.6852 70.9054V70.9915V71.1875L32.6813 71.3443L32.6773 71.4419L32.6734 71.6303V71.8884L32.6656 72.0768L32.6577 72.2332L32.6539 72.335V72.5229L32.65 72.6797L32.646 72.7815L32.6381 72.9694L32.6343 73.1263L32.6304 73.2319L32.6225 73.4198L32.6186 73.5766L32.6108 73.6823L32.603 73.8702L32.599 74.027C32.599 74.074 32.5912 74.0974 32.5912 74.1327L32.5834 74.3287C32.5834 74.4188 32.5794 74.4464 32.5755 74.4855L32.5716 74.595L32.5638 74.7791L32.5559 74.9359L32.5521 75.0416L32.5402 75.2371L32.5325 75.3939L32.5285 75.5039L32.5206 75.6918C32.5206 75.7819 32.5129 75.809 32.5129 75.8481C32.5129 75.8873 32.5089 75.9268 32.505 75.9581L32.4972 76.146L32.4933 76.2947L32.4855 76.4123L32.4737 76.6002L32.4659 76.7412L32.458 76.8589L32.4463 77.0468L32.4384 77.1954C32.4384 77.2424 32.4306 77.2739 32.4306 77.3131L32.4227 77.5091L32.411 77.6501L32.4031 77.7677C32.4045 77.8292 32.402 77.8907 32.3954 77.9518L32.3837 78.1005L32.3758 78.2181L32.368 78.406L32.3601 78.5471L32.3522 78.6642L32.3366 78.8526V78.9893L32.3288 79.115C32.321 79.162 32.3171 79.2047 32.3171 79.2556L32.2975 79.3928C32.2896 79.4398 32.2897 79.4789 32.2818 79.5181L32.2662 79.6591L32.2543 79.7964L32.2466 79.9216C32.2426 79.9686 32.2347 80.0079 32.2347 80.0588L32.223 80.1999L32.2152 80.3251C32.2064 80.3744 32.1998 80.4239 32.1956 80.4738L32.176 80.6111C32.176 80.6581 32.1721 80.6891 32.1681 80.744C32.1642 80.7988 32.1603 80.8304 32.1525 80.8774L32.1329 81.0261L32.1172 81.1513L32.1016 81.3005L32.0899 81.4415C32.0811 81.4856 32.0745 81.5297 32.0703 81.5744C32.0624 81.6214 32.0624 81.6647 32.0546 81.7117L32.035 81.8527C32.0272 81.8997 32.0193 81.9426 32.0154 81.9818L31.992 82.1305L31.9724 82.2715L31.9488 82.4087C31.941 82.4557 31.9331 82.499 31.9292 82.546L31.9097 82.687L31.8862 82.8237L31.8705 82.9648L31.8509 83.102C31.8431 83.149 31.8431 83.1883 31.8313 83.2392L31.8079 83.3803L31.7883 83.5213L31.7647 83.658L31.7374 83.7953C31.7256 83.9128 31.7177 83.9206 31.7138 83.9363L31.6904 84.0773C31.6826 84.1243 31.6825 84.1675 31.6708 84.2184L31.6512 84.3594C31.6434 84.4064 31.6433 84.4452 31.6276 84.4962L31.6042 84.6372C31.5925 84.7547 31.5846 84.7547 31.5807 84.7782L31.5611 84.9193L31.5298 85.0527C31.5258 85.0997 31.522 85.0993 31.522 85.1306L31.4828 85.3343L31.4554 85.4715L31.4358 85.6125L31.4083 85.7536C31.4005 85.8006 31.3927 85.8396 31.3809 85.8827C31.3692 85.9258 31.3731 85.9337 31.3653 85.9611L31.3261 86.1648L31.2948 86.3058L31.2712 86.443L31.2438 86.5841L31.2165 86.7132C31.2086 86.7602 31.2008 86.7681 31.1929 86.7916L31.1537 86.9871C31.1459 87.0341 31.1303 87.0735 31.1264 87.1205L31.1107 87.1989L31.0715 87.4026C31.0637 87.4496 31.048 87.4809 31.0402 87.5279C31.0323 87.5749 31.0323 87.5828 31.0245 87.6063V87.8018C31.0049 87.8488 30.9971 87.8883 30.9853 87.9314C30.9736 87.9745 30.9697 87.9824 30.9619 88.0098L30.9149 88.2053C30.9032 88.2523 30.8874 88.2918 30.8835 88.3349C30.8796 88.378 30.8679 88.3935 30.86 88.421L30.8131 88.6165C30.8013 88.6635 30.7856 88.7026 30.7816 88.7418C30.7777 88.7809 30.766 88.797 30.7582 88.8283L30.7073 89.0239C30.6877 89.1139 30.6681 89.1535 30.6603 89.1926C30.6525 89.2318 30.6446 89.2431 30.6368 89.2706L30.5858 89.4666C30.5645 89.5056 30.55 89.5479 30.5428 89.5918C30.535 89.6388 30.5232 89.6509 30.5153 89.6822L30.4644 89.8701L30.4253 89.9954C30.3979 90.0737 30.394 90.1128 30.3861 90.1206C30.3783 90.1676 30.3626 90.2108 30.3469 90.2617C30.329 90.3022 30.3147 90.344 30.3039 90.3869C30.2961 90.4339 30.2881 90.446 30.2764 90.4773C30.2529 90.5752 30.2373 90.6143 30.2216 90.6652C30.2021 90.7553 30.1903 90.7824 30.1824 90.8215C30.1746 90.8607 30.159 90.8804 30.1551 90.9196C30.1355 90.9901 30.1081 91.0566 30.0846 91.1271L30.014 91.3427L29.9357 91.554L29.8573 91.7696L29.779 91.981L29.6929 92.1928L29.6146 92.4041L29.5362 92.6197L29.4462 92.831L29.36 93.0462L29.2699 93.258L29.172 93.4693L29.0779 93.6811L28.98 93.8963L28.8742 94.1038C28.8468 94.1821 28.8076 94.2528 28.7724 94.3194L28.6667 94.5307L28.5609 94.7463L28.4552 94.9577L28.3455 95.1733L28.2281 95.3846L28.1183 95.5959L28.0008 95.8077L27.8833 96.0229L27.7658 96.2347L27.6483 96.446L27.523 96.6578L27.3977 96.873L27.1314 97.2961L26.9943 97.5074L26.8533 97.7192L26.7084 97.9344L26.5634 98.1457L26.2658 98.5688L26.1091 98.7844L25.9525 98.9996L25.6274 99.4227L25.459 99.634L25.2787 99.8497L25.1065 100.061C22.5411 103.104 19.114 105.654 14.8213 106.218L21.2368 106.99C24.9811 106.073 28.2946 103.551 30.8914 100.057L31.0481 99.8458L31.3613 99.4151L31.5102 99.2033L31.6472 98.9919L31.9292 98.6004L32.0663 98.3886C32.1133 98.3259 32.1564 98.2477 32.1995 98.1772L32.3171 97.9659L32.4423 97.7503L32.5677 97.539L32.693 97.3272L32.8105 97.1158L32.928 96.9045L33.0338 96.6889L33.257 96.2658L33.3745 96.0544L33.4803 95.8388L33.5822 95.6275L33.68 95.4162L33.7819 95.2044L33.8837 94.9892L33.9816 94.7774C34.0208 94.7069 34.0442 94.6367 34.0756 94.5623C34.1069 94.4878 34.1343 94.421 34.1617 94.3505L34.2558 94.1353L34.3458 93.9278L34.432 93.7122L34.5221 93.5009L34.6004 93.2656L34.6788 93.0543L34.7571 92.8387C34.7845 92.776 34.808 92.69 34.8354 92.6274L34.9138 92.4117L35.0626 91.9891C35.09 91.9186 35.1096 91.8478 35.1292 91.7773L35.1997 91.5621L35.2623 91.3503L35.325 91.1352C35.3524 91.0725 35.372 90.9982 35.3916 90.9277C35.3994 90.8807 35.4112 90.8649 35.419 90.8297C35.4312 90.791 35.4456 90.7529 35.4621 90.7159C35.4777 90.618 35.5012 90.5789 35.513 90.528L35.5522 90.3869L35.5835 90.2617L35.6227 90.0738C35.6462 89.9759 35.6501 89.9561 35.6618 89.9366L35.6893 89.8113L35.7363 89.6272C35.7559 89.5293 35.7637 89.5097 35.7755 89.4862L35.8029 89.3609C35.8237 89.3134 35.8382 89.2635 35.8459 89.2122C35.8655 89.1143 35.8733 89.1024 35.8851 89.075L35.9126 88.9497C35.9322 88.8518 35.9517 88.8127 35.9596 88.7657C35.9791 88.6638 35.9869 88.6481 35.9986 88.6246L36.0222 88.4994C36.0378 88.4485 36.0496 88.4092 36.0614 88.3583L36.0927 88.2173L36.1201 88.092L36.1514 87.951C36.1671 87.8491 36.175 87.8334 36.1828 87.8099L36.2102 87.6804C36.2298 87.6295 36.2416 87.5945 36.2494 87.5436L36.2885 87.4026L36.316 87.273L36.3551 87.1325L36.3826 86.9914L36.4373 86.7251L36.4608 86.5759L36.4882 86.4468L36.5157 86.3058L36.5391 86.1686L36.5666 86.0275L36.594 85.8908L36.6175 85.734L36.6449 85.6049L36.6724 85.4639L36.6958 85.3266C36.7037 85.2796 36.7115 85.2364 36.7154 85.1894C36.7194 85.1424 36.7311 85.0997 36.7428 85.0527L36.7624 84.9116L36.786 84.7782L36.8329 84.4923L36.8603 84.3513L36.8799 84.2146L36.9035 84.0735L36.9308 83.9325C36.9347 83.8855 36.9465 83.8423 36.9544 83.7914L36.974 83.6504L37.0014 83.5132L37.017 83.376L37.0366 83.2392C37.0444 83.1922 37.0445 83.1491 37.0562 83.0982C37.068 83.0473 37.064 83.008 37.0719 82.961L37.0915 82.8237C37.0993 82.7728 37.0993 82.7338 37.1071 82.675L37.1267 82.534L37.1462 82.3968C37.154 82.3498 37.1542 82.311 37.162 82.26L37.1777 82.1228L37.1933 82.0444L37.2207 81.8369C37.2246 81.7899 37.2285 81.7587 37.2403 81.7078C37.252 81.6569 37.2481 81.6568 37.2481 81.6294L37.2638 81.4334C37.2717 81.3825 37.2717 81.3475 37.2795 81.3005C37.2873 81.2535 37.2873 81.2456 37.2873 81.2221L37.3029 81.0146L37.3186 80.8893C37.3186 80.8423 37.3225 80.8383 37.3265 80.8109L37.3421 80.6149L37.3578 80.482L37.3655 80.4036C37.3695 80.2978 37.3774 80.2469 37.3813 80.1999L37.397 80.0746C37.4009 80.0276 37.4048 80.0194 37.4048 79.9881L37.4322 79.7925C37.4322 79.7455 37.4361 79.7064 37.44 79.6673C37.4439 79.6281 37.4479 79.6121 37.4479 79.5807L37.4713 79.3852C37.4713 79.3382 37.4753 79.3069 37.4792 79.2599L37.487 79.1734L37.5026 78.9778L37.5183 78.8095L37.5222 78.723L37.534 78.5275L37.5458 78.363C37.5497 78.316 37.5536 78.304 37.5536 78.2726L37.5771 78.0771L37.5849 77.9126L37.5928 77.8146C37.5914 77.7531 37.594 77.6916 37.6007 77.6305L37.6124 77.4661L37.6201 77.368L37.632 77.1801L37.6397 77.0233L37.6476 76.9215L37.6593 76.7336L37.6672 76.5768L37.675 76.4788L37.6867 76.2909V76.134L37.6946 76.0322L37.7063 75.8443L37.7182 75.688C37.7182 75.641 37.722 75.6171 37.7259 75.5818L37.7338 75.3939L37.7376 75.2371L37.7455 75.1314L37.7534 74.9359L37.7651 74.7791V74.6734L37.7768 74.4893L37.7847 74.3325V74.2269L37.7964 74.0308C37.7964 73.9408 37.8003 73.9137 37.8042 73.8745L37.8082 73.7645L37.816 73.5766L37.8238 73.4198V73.3142L37.8317 73.1263L37.8395 72.9694L37.8434 72.86L37.8513 72.6721L37.8591 72.5229L37.863 72.4134L37.8709 72.2255V72.0768L37.8787 71.9592L37.8866 71.7632V71.6221C37.8944 71.5751 37.8943 71.5437 37.8943 71.5045L37.9022 71.3204L37.91 71.1799L37.9139 71.0623V70.8662L37.9179 70.7333V70.6157L37.9257 70.4278V70.2868L37.9335 70.1615L37.9375 69.9731L37.9413 69.8326L37.9453 69.715V69.5271L37.9531 69.386V69.2684L37.9609 69.0805V68.9433L37.9649 68.818V68.622L37.9688 68.4848C37.9666 68.4415 37.9692 68.3984 37.9766 68.3557V68.0736L37.9805 67.9445V67.8035L37.9845 67.6663C37.9884 67.6193 37.9884 67.5802 37.9884 67.5372L37.9962 67.2513V67.1222L38.0041 66.832V66.7067L38.0079 66.5657V66.4246L38.0118 66.2917V65.8724L38.0158 65.7237V65.5865L38.0197 65.4497V65.1638L38.0235 65.0304V64.8818V64.7484V63.3384L38.0275 63.1897V12.1005L32.7988 10.9334V64.6819" fill="#999999"/>
<path d="M42.6176 64.4545V65.4886C42.6137 65.5356 42.6138 65.5744 42.6138 65.6253V66.0485V66.1776V66.256L42.6099 66.4635V66.7379V66.8789L42.6059 67.0042V67.2939C42.602 67.3409 42.602 67.38 42.602 67.423L42.5981 67.5014L42.5942 67.7051L42.5903 67.8347V67.9126L42.5863 68.1163L42.5824 68.2459V68.3319V68.5279C42.5784 68.5749 42.5785 68.6062 42.5785 68.6532L42.5746 68.7393L42.5707 68.9353V69.1036L42.5667 69.182L42.5629 69.3775L42.5589 69.542L42.555 69.6324L42.5511 69.8279L42.5433 69.9924V70.0828L42.5354 70.2783L42.5314 70.4471V70.537L42.5276 70.733L42.5197 70.8974L42.5158 70.9835L42.508 71.1795V71.3359L42.5001 71.4339L42.4963 71.618L42.4884 71.7748L42.4845 71.8728L42.4767 72.0607V72.217L42.4688 72.3189L42.461 72.5072L42.4571 72.6636L42.4492 72.7654V72.9538L42.4414 73.1101L42.4336 73.2158L42.4179 73.5567L42.4101 73.6624L42.4022 73.8507L42.3945 74.0071L42.3866 74.1127L42.3749 74.3088L42.367 74.4656L42.3592 74.5751L42.3474 74.7591C42.3474 74.8492 42.3435 74.8768 42.3396 74.916C42.3357 74.9551 42.3356 74.9864 42.3317 75.0216L42.3239 75.2176L42.3121 75.374V75.4839L42.2965 75.6718L42.2887 75.8282L42.2808 75.9381L42.2691 76.126L42.2612 76.2747L42.2574 76.3924L42.2338 76.5802L42.2261 76.7213L42.2182 76.8389L42.2103 77.0268L42.1986 77.176C42.1986 77.223 42.1947 77.2539 42.1908 77.2931L42.1829 77.4891L42.1712 77.6302C42.1712 77.6772 42.1633 77.7086 42.1633 77.7478L42.1476 77.9319L42.1359 78.0724L42.128 78.19L42.1124 78.3861L42.1046 78.5233L42.0967 78.6404L42.0811 78.8288L42.0694 78.9655L42.0615 79.0908C42.0536 79.1378 42.0498 79.1809 42.0498 79.2318L42.038 79.3691L42.0302 79.4943C42.0223 79.5452 42.0223 79.5923 42.0145 79.6354L41.9949 79.7726L41.9792 79.8978L41.9636 80.0351L41.944 80.1761C41.9361 80.2231 41.9361 80.2622 41.9283 80.3014C41.9205 80.3405 41.9127 80.3991 41.9127 80.4501L41.8931 80.5873L41.8774 80.7202C41.8696 80.7672 41.8696 80.8066 41.8617 80.8536L41.8421 81.0023C41.8343 81.0493 41.8343 81.0805 41.8265 81.1275L41.8108 81.2767L41.7912 81.4173L41.7756 81.5507L41.7599 81.6879L41.7403 81.8289C41.7325 81.8759 41.7324 81.9188 41.7207 81.958C41.7089 81.9972 41.713 82.0558 41.7012 82.1067L41.6816 82.2478C41.6738 82.2948 41.6738 82.3341 41.666 82.385L41.6424 82.5222L41.6228 82.6632L41.5994 82.8L41.5758 82.9491L41.5602 83.0897C41.5523 83.1367 41.5523 83.176 41.5366 83.2269L41.5132 83.368L41.5014 83.509L41.4779 83.6462V83.65C41.474 83.701 41.4701 83.7403 41.4544 83.7873L41.431 83.9283C41.427 83.9792 41.4153 84.0258 41.4114 84.0689L41.3878 84.2099L41.3682 84.351L41.3408 84.4882C41.333 84.5391 41.333 84.5861 41.3212 84.6292C41.3095 84.7467 41.3017 84.7468 41.2978 84.7703L41.2743 84.9113V84.9151L41.2507 85.048C41.2429 85.095 41.2429 85.099 41.2429 85.1264L41.2037 85.3301L41.1764 85.4673L41.1568 85.6046L41.1294 85.7456C41.1255 85.7926 41.1137 85.8316 41.1058 85.8747C41.098 85.9178 41.098 85.9257 41.0902 85.9531L41.051 86.1568L41.0236 86.3055L41.0001 86.4427L40.9727 86.5837C40.9609 86.6307 40.957 86.6697 40.9452 86.7128C40.9335 86.7559 40.9375 86.7677 40.9257 86.7912L40.8865 86.9868L40.8552 87.1202C40.8513 87.1672 40.8473 87.1712 40.8473 87.1986L40.8082 87.4022C40.8004 87.4492 40.7846 87.4805 40.7807 87.5275C40.7768 87.5745 40.7729 87.5824 40.7611 87.6059L40.722 87.8015L40.6946 87.931C40.6906 87.978 40.6867 87.9859 40.675 88.0094L40.6359 88.205L40.6045 88.3346C40.5967 88.3816 40.5888 88.3932 40.581 88.4206L40.5418 88.6162C40.53 88.6632 40.5144 88.6944 40.5105 88.7414C40.5066 88.7884 40.4949 88.8005 40.4871 88.828L40.4478 89.0235L40.4165 89.1923L40.3969 89.2702L40.346 89.4662L40.3147 89.5915L40.2951 89.6819L40.2481 89.8698C40.2285 89.9168 40.2167 89.9559 40.2089 89.995C40.2011 90.0342 40.1894 90.0576 40.1815 90.0811C40.162 90.1829 40.1501 90.2223 40.1344 90.2771C40.1191 90.3178 40.1074 90.3596 40.0993 90.4024C40.0915 90.4494 40.0797 90.4609 40.0718 90.4923L40.0248 90.6806L39.9856 90.837C39.9778 90.884 39.9661 90.8958 39.9583 90.935L39.8956 91.1425C39.88 91.2208 39.8564 91.2837 39.8368 91.3581L39.7781 91.5694L39.7154 91.7851L39.6567 91.9964L39.5235 92.4195L39.457 92.6347L39.3904 92.8465L39.3237 93.0616C39.2963 93.1243 39.2768 93.2029 39.2533 93.2734L39.1749 93.4847L39.0966 93.6961C39.077 93.7744 39.0496 93.8373 39.0261 93.9117L38.9478 94.1192C38.9243 94.1975 38.8968 94.2682 38.8694 94.3348L38.7911 94.5461L38.7128 94.7618L38.6344 94.9731L38.5561 95.1887L38.4699 95.4L38.3798 95.6114L38.2936 95.8232L38.2076 96.0383L38.0234 96.4614L37.9334 96.6728C37.9177 96.7198 37.906 96.7358 37.8864 96.7593C37.8707 96.8063 37.8472 96.8453 37.8355 96.8884C37.7963 96.9511 37.7649 97.0253 37.7297 97.0997L37.4163 97.7342L37.2988 97.9498L37.0756 98.3729L36.9581 98.5842L36.8406 98.7999L36.7231 99.015L36.6055 99.2263L36.4803 99.4382L36.3511 99.6495L36.2336 99.8651L36.0925 100.076C33.0649 104.933 27.5777 110.886 19.9872 110.953L27.3426 111.838C32.6693 110.91 38.2467 106.676 41.8344 100.076C41.8735 100.006 41.9126 99.9278 41.944 99.8651L42.0498 99.6495C42.0889 99.579 42.1281 99.5087 42.1595 99.4382L42.2691 99.2263L42.3749 99.015L42.4767 98.831L42.5824 98.5685L42.7783 98.1453L42.8762 97.934L42.9741 97.7189L43.0642 97.5071L43.1621 97.2957L43.2483 97.0839L43.3384 96.8726L43.4246 96.6575L43.5968 96.2343L43.6752 96.0225L43.7614 95.8074L43.8397 95.5956L43.918 95.3843L43.9964 95.1729L44.0747 94.9573L44.153 94.746L44.2235 94.5304L44.294 94.319L44.3645 94.1034L44.435 93.8959L44.5016 93.6808L44.6348 93.2576C44.6622 93.1871 44.6818 93.1163 44.7013 93.0458L44.76 92.8307L44.8228 92.6194L44.8854 92.4037L45.0617 91.7693L45.1204 91.5537L45.1753 91.3423C45.1988 91.2718 45.2145 91.2011 45.2301 91.1267C45.2458 91.0523 45.2692 90.9897 45.2849 90.9192C45.2927 90.8722 45.3006 90.8486 45.3124 90.8212L45.3397 90.7041C45.3554 90.614 45.3672 90.5666 45.3789 90.5157L45.4103 90.3789C45.4181 90.3319 45.4337 90.3007 45.4376 90.2537C45.4415 90.2067 45.4768 90.1557 45.4768 90.1126C45.4964 90.0147 45.5043 90.0028 45.516 89.9754C45.5278 89.948 45.5356 89.8893 45.5434 89.8502L45.5826 89.7129L45.6139 89.5719C45.6296 89.5249 45.6374 89.4936 45.6413 89.4466C45.6452 89.3996 45.6688 89.3487 45.6805 89.3056L45.7079 89.1684L45.7354 89.0431L45.7745 88.859C45.7901 88.7572 45.7981 88.7415 45.8059 88.718L45.8333 88.5927L45.8725 88.4517L45.8998 88.3106L45.9272 88.1854C45.935 88.1345 45.9508 88.0953 45.9547 88.0443L45.9821 87.9076L46.0056 87.778C46.0252 87.7271 46.0251 87.6922 46.0447 87.6413L46.0722 87.5003L46.0996 87.3745L46.1269 87.2339L46.1505 87.0929L46.1779 86.9595C46.1857 86.9125 46.1897 86.8736 46.2054 86.8266L46.2288 86.6774L46.2563 86.5483L46.2836 86.4073L46.3072 86.2701L46.3306 86.129L46.3581 85.9885L46.3815 85.8393L46.409 85.7102L46.4325 85.5692L46.456 85.4281L46.4796 85.2909C46.4913 85.2439 46.4912 85.2012 46.503 85.1542L46.5265 85.0131L46.55 84.8797V84.8759L46.5774 84.7349L46.597 84.5938L46.6205 84.4528L46.644 84.316L46.6636 84.175L46.7106 83.8891L46.7302 83.7481C46.7341 83.7011 46.7381 83.6618 46.7498 83.6108L46.7732 83.4736L46.7928 83.3326L46.8164 83.1915C46.8203 83.1406 46.8241 83.1018 46.8359 83.0548L46.8555 82.9176C46.8633 82.8667 46.8711 82.8276 46.8751 82.7689L46.8986 82.6278L46.9182 82.4906C46.9221 82.4436 46.9259 82.4043 46.9377 82.3534L46.9535 82.2167C46.9574 82.1697 46.9612 82.1657 46.9612 82.1383L46.9848 81.9308L47.0005 81.8012C47.0044 81.7542 47.0082 81.7502 47.0082 81.7228L47.0357 81.5272C47.0435 81.4802 47.0435 81.4408 47.0435 81.3938L47.0591 81.3154L47.0983 80.9827C47.1023 80.9357 47.1061 80.9317 47.1061 80.9043L47.1297 80.7087L47.1453 80.5753C47.1453 80.5283 47.1493 80.5243 47.1532 80.4969L47.1728 80.2932L47.1885 80.168L47.1962 80.0819L47.2237 79.8859C47.2316 79.8389 47.2315 79.7998 47.2315 79.7606C47.2315 79.7215 47.2394 79.7059 47.2394 79.6746L47.255 79.4785C47.2629 79.4315 47.2628 79.4003 47.2668 79.3533C47.2707 79.3063 47.2746 79.2986 47.2746 79.2672L47.2903 79.0712L47.302 78.9029L47.3098 78.8168L47.3254 78.6208L47.3373 78.4563C47.3412 78.4093 47.345 78.3978 47.345 78.3665L47.3607 78.1704C47.3589 78.1155 47.3615 78.0605 47.3686 78.006L47.3764 77.908L47.3882 77.7239L47.3999 77.5594C47.3999 77.5124 47.4078 77.501 47.4078 77.4619L47.4273 77.2735L47.4391 77.1172C47.443 77.0702 47.4469 77.0545 47.4469 77.0153L47.4587 76.827L47.4665 76.6706L47.4744 76.5726L47.4861 76.3847L47.5017 76.2279C47.5017 76.1809 47.5057 76.1652 47.5096 76.126L47.5174 75.9381L47.5253 75.7813L47.5331 75.6757L47.5449 75.4878L47.5527 75.331C47.5527 75.284 47.5566 75.2605 47.5606 75.2253L47.5683 75.0293L47.58 74.8729C47.58 74.8259 47.584 74.8099 47.5879 74.7668L47.5957 74.5827L47.6075 74.4264V74.3207L47.6153 74.1323L47.6271 73.976L47.631 73.866L47.6388 73.6781V73.5213C47.6467 73.4743 47.6466 73.4509 47.6466 73.4156L47.6545 73.2278L47.6741 73.0709V72.9614L47.6781 72.7735L47.6858 72.6244L47.6937 72.5149L47.7015 72.327L47.7094 72.1783L47.7171 72.0607L47.725 71.8647L47.7328 71.7236L47.7407 71.606V71.4219L47.7446 71.2814C47.7446 71.2344 47.7485 71.2029 47.7524 71.1638L47.7603 70.9677L47.7642 70.8348C47.7681 70.7878 47.7681 70.7564 47.7681 70.7172V70.5293L47.7759 70.3921L47.7799 70.2668L47.7877 70.0789L47.7916 69.9379L47.7955 69.8203L47.8033 69.6324V69.4913L47.8073 69.3737L47.815 69.1858V69.0448C47.8189 68.9978 47.819 68.9587 47.819 68.9195L47.8269 68.7703L47.8308 68.6336C47.8347 68.5866 47.8346 68.5471 47.8346 68.504L47.8425 68.3673L47.8465 68.2263L47.8503 68.0967L47.8582 67.8108L47.8621 67.6855L47.8895 66.7145V66.5734L47.8934 66.44L47.8974 66.299V66.1503L47.9012 66.0212V65.7353V65.5981L47.9052 65.4609V65.3122L47.9091 65.1788V65.0301V64.8972V64.6113V64.4702V64.333C47.913 64.286 47.913 64.2352 47.913 64.1843V63.9099L47.9169 63.7688V63.209L47.9208 63.0603V6.98531L42.5942 5.79434V64.4387" fill="#999999"/>
<path d="M42.6177 5.80988L47.9444 7.00037L47.9052 66.7295C47.9013 66.7765 47.9013 66.8197 47.9013 66.8706L47.8974 67.0001C47.8974 67.0511 47.8974 67.059 47.8935 67.0786L47.8896 67.2861L47.8856 67.4151C47.8856 67.4543 47.8818 67.4661 47.8818 67.4936L47.8778 67.6972L47.8739 67.8225L47.87 67.9086L47.866 68.1122L47.8622 68.2375L47.8582 68.324L47.8503 68.5196L47.8465 68.6879L47.8426 68.7744C47.8438 68.8398 47.8411 68.9049 47.8347 68.97L47.8309 69.1387V69.2248C47.8322 69.2902 47.8296 69.3553 47.823 69.4203L47.819 69.5848L47.8151 69.6752C47.8162 69.7392 47.8137 69.8031 47.8073 69.8669L47.8034 70.0314L47.7994 70.1217L47.7917 70.3173L47.7877 70.4425L47.7838 70.5329L47.776 70.7284L47.7643 70.9794L47.7564 71.175V71.4298L47.7447 71.6177C47.7447 71.7078 47.7407 71.7354 47.7368 71.7745C47.7329 71.8137 47.7368 71.8334 47.7329 71.8726C47.7314 71.9366 47.7275 72.0005 47.7211 72.0643C47.7231 72.1179 47.7206 72.1717 47.7134 72.2249L47.7094 72.3268C47.7078 72.3895 47.7038 72.4522 47.6976 72.5147L47.6898 72.6715L47.6859 72.7733V73.118L47.6781 73.2237L47.6663 73.4116L47.6467 73.5684V73.6741L47.6389 73.862L47.631 74.0188L47.6232 74.1244L47.6115 74.3205V74.4768L47.6036 74.5868L47.5919 74.7708L47.584 74.9272L47.5763 75.0372L47.5644 75.2327L47.5567 75.3895V75.499V75.6874L47.545 75.8437L47.5371 75.9537L47.5292 76.1416L47.5214 76.2903L47.5135 76.4079L47.5018 76.5958L47.4901 76.7368C47.4862 76.7682 47.4862 76.8153 47.4862 76.8544L47.4744 77.0423L47.4626 77.191L47.4548 77.3086L47.4431 77.5047L47.4235 77.6457L47.4156 77.7629L47.4039 77.9469L47.3922 78.0961L47.3843 78.2132L47.3569 78.5426L47.3491 78.6598L47.3177 78.9849L47.3098 79.1102C47.303 79.157 47.2977 79.204 47.2942 79.2512L47.2825 79.3884V79.5137C47.2761 79.5606 47.2709 79.6076 47.2668 79.6547L47.2551 79.7919L47.2472 79.9172C47.2382 79.9625 47.2316 80.0084 47.2276 80.0544L47.2159 80.1955L47.2002 80.3207C47.1925 80.37 47.1887 80.4196 47.1885 80.4694L47.1689 80.6066L47.1376 80.8729L47.118 81.0216L47.1023 81.1469C47.0945 81.1861 47.0945 81.2447 47.0867 81.2956L47.0631 81.4366C47.0632 81.4811 47.0607 81.5258 47.0554 81.57C47.0475 81.617 47.0475 81.6602 47.0358 81.7072L47.0162 81.8483L47.0005 81.9774C46.9938 82.0268 46.9886 82.0763 46.9849 82.1261L46.9653 82.2671C46.9574 82.3141 46.9574 82.3534 46.9496 82.4043L46.93 82.5415L46.9104 82.6821L46.8908 82.8193L46.8674 82.9762L46.8478 83.1172C46.8387 83.1625 46.8321 83.2079 46.8282 83.2539L46.8046 83.4031L46.7851 83.5403L46.7616 83.6771C46.7616 83.6771 46.7381 83.7673 46.7342 83.8143L46.7146 83.9553L46.6675 84.2374L46.648 84.3784L46.6245 84.5152L46.6009 84.6562L46.5815 84.7973L46.554 84.9383L46.5305 85.0717L46.5149 85.1496L46.4874 85.3576L46.46 85.4943C46.4483 85.6118 46.4404 85.612 46.4365 85.6316C46.4274 85.6782 46.4209 85.7253 46.4169 85.7726L46.3855 85.9017H46.3699L46.3307 86.1054L46.3073 86.2545L46.2837 86.3913L46.2563 86.5323L46.2288 86.6619C46.2249 86.7089 46.221 86.7163 46.2132 86.7398L46.1819 86.9358L46.1506 87.0692L46.1349 87.1472L46.0957 87.3508C46.0879 87.3978 46.0722 87.4291 46.0683 87.4761C46.0644 87.5231 46.0605 87.531 46.0487 87.5545L46.0095 87.7505L45.9782 87.8796C45.9704 87.9188 45.9703 87.9344 45.9586 87.9657V88.1617C45.9504 88.2037 45.9414 88.2454 45.9312 88.287C45.9234 88.334 45.9234 88.3456 45.9116 88.373C45.892 88.4788 45.8803 88.5221 45.8646 88.5691C45.8565 88.6111 45.8474 88.6528 45.8373 88.6943L45.8177 88.7804L45.7785 88.9764L45.7393 89.1447C45.7393 89.1447 45.7315 89.1955 45.7198 89.2308L45.6806 89.4268C45.6806 89.4268 45.6649 89.5129 45.6493 89.5521C45.6336 89.5912 45.6335 89.6111 45.6257 89.6424L45.5866 89.8303C45.5866 89.8303 45.5591 89.9164 45.5552 89.9556C45.5513 89.9947 45.5396 90.0181 45.5278 90.0416C45.5161 90.1396 45.5004 90.1828 45.4886 90.2377C45.4732 90.2783 45.4614 90.3202 45.4534 90.3629C45.4494 90.4099 45.4456 90.4215 45.4299 90.4528L45.379 90.6488C45.3712 90.7389 45.3593 90.7665 45.3515 90.8057C45.3437 90.8448 45.332 90.864 45.3241 90.9032L45.2693 91.1112L45.2145 91.3263L45.1597 91.5381L45.1009 91.7533L44.9247 92.3877L44.8619 92.6033L44.7993 92.8147L44.7406 93.0303L44.4781 93.8799L44.4076 94.0879L44.3372 94.303L44.2667 94.5143L44.1962 94.73L44.1179 94.9413L44.0395 95.1569L43.9612 95.3682C43.9339 95.4379 43.909 95.5087 43.8867 95.5801L43.8084 95.7914L43.7222 96.007L43.644 96.2183L43.4716 96.6415L43.3854 96.8566L43.2953 97.0684L43.2091 97.2797L43.1112 97.4911L43.0211 97.7029L42.9232 97.918L42.8253 98.1298C42.7977 98.2032 42.7636 98.2738 42.7235 98.3411C42.6843 98.4038 42.6569 98.4898 42.6216 98.5525C42.5864 98.6151 42.559 98.7015 42.5237 98.7681C42.4846 98.8738 42.4453 98.9367 42.414 99.0033L42.3084 99.2146L42.1986 99.426C42.1655 99.4982 42.129 99.5691 42.089 99.6378L41.9832 99.8529L41.8735 100.065C38.2819 106.66 32.7086 110.898 27.3819 111.826L20.0265 110.941C27.613 110.871 33.1081 104.917 36.1318 100.065L36.2727 99.8529L36.3902 99.6378L36.5195 99.426L36.6448 99.2146L36.7623 99.0033L36.9973 98.6113L37.1148 98.3999C37.1537 98.3307 37.1903 98.2603 37.2245 98.1886L37.3341 97.9768L37.4516 97.7617C37.4891 97.6923 37.5244 97.6215 37.5574 97.5499L37.765 97.1272C37.7964 97.0548 37.8317 96.9839 37.8708 96.9154C37.8865 96.8684 37.91 96.8293 37.9217 96.7901C37.9335 96.751 37.9491 96.7276 37.9687 96.7041L38.0587 96.4923C38.0875 96.4207 38.1189 96.3503 38.1528 96.281L38.2467 96.0696L38.3329 95.854L38.4191 95.6427L38.5092 95.4309L38.5954 95.2196C38.6267 95.1569 38.6462 95.0705 38.6737 95.0039L38.7519 94.7926L38.8304 94.5775V94.3657L38.9086 94.1505C38.9321 94.0722 38.9595 94.013 38.9869 93.9425C39.0143 93.872 39.0379 93.8018 39.0575 93.7274C39.0777 93.6548 39.104 93.5843 39.1359 93.5161C39.1672 93.4456 39.1828 93.3748 39.2142 93.3043C39.2455 93.2338 39.2612 93.1556 39.2847 93.0929L39.3512 92.8773C39.377 92.808 39.3992 92.7376 39.4178 92.666L39.4844 92.4504C39.5076 92.3802 39.5298 92.3099 39.551 92.239L39.6176 92.0277L39.6764 91.8159L39.739 91.6008L39.7977 91.389C39.8212 91.3185 39.8447 91.2482 39.8565 91.1738C39.8682 91.0994 39.9035 91.0368 39.9191 90.9663C39.927 90.9193 39.9388 90.8957 39.9466 90.8683L39.9779 90.7507C39.9897 90.6528 40.0053 90.6137 40.017 90.5628C40.0366 90.4649 40.0406 90.4452 40.0562 90.4217C40.0719 90.3982 40.0758 90.3435 40.0836 90.2965C40.0914 90.2495 40.1229 90.2063 40.1307 90.1554C40.1503 90.0575 40.158 90.0456 40.1698 90.0182C40.1815 89.9908 40.1894 89.9321 40.1973 89.8929C40.2158 89.8487 40.2302 89.8026 40.2403 89.7557L40.2716 89.6147C40.2716 89.6147 40.2952 89.5364 40.2991 89.4894C40.303 89.4424 40.3304 89.3916 40.3382 89.3407L40.3696 89.2035C40.3696 89.2035 40.3931 89.1174 40.397 89.0783C40.4087 88.9882 40.4244 88.9412 40.4362 88.8942C40.4558 88.7923 40.4558 88.7766 40.4675 88.7531C40.4793 88.7296 40.4871 88.6749 40.4949 88.6279C40.5027 88.5809 40.5184 88.5377 40.5341 88.4868L40.5654 88.3458C40.5736 88.3038 40.5826 88.2621 40.5928 88.2205C40.6045 88.1696 40.6202 88.1226 40.6241 88.0795L40.6516 87.9384L40.679 87.8094C40.6916 87.7642 40.702 87.7183 40.7103 87.6721L40.7378 87.5311C40.7459 87.4891 40.755 87.4474 40.7651 87.4058L40.7925 87.2648L40.8161 87.1237C40.8222 87.0788 40.8313 87.0346 40.8434 86.9908C40.8483 86.9453 40.8589 86.9003 40.8749 86.8574L40.9022 86.7087L40.9258 86.5797C40.9384 86.5332 40.9489 86.4861 40.9571 86.4386L40.9805 86.3014L41.0354 86.0193L41.0589 85.8706L41.0824 85.7411L41.1099 85.6005L41.1295 85.4633L41.1568 85.3261L41.1804 85.1888L41.2038 85.0401L41.2273 84.9072L41.2743 84.617L41.2939 84.476L41.3213 84.3392L41.3409 84.1982L41.3644 84.0572L41.3839 83.9161L41.4075 83.7751C41.4128 83.729 41.4207 83.6831 41.431 83.6379L41.4545 83.4968L41.4663 83.3601L41.5133 83.078L41.5289 82.9408L41.5523 82.7921L41.5759 82.6549L41.5955 82.5138L41.619 82.3766L41.6347 82.2399C41.6425 82.1929 41.6425 82.1928 41.6425 82.1615L41.67 81.954C41.67 81.954 41.6777 81.8753 41.6894 81.8244C41.7012 81.7735 41.6973 81.7739 41.6973 81.7465L41.7208 81.5504L41.7365 81.417L41.7443 81.3391L41.7679 81.1311C41.7742 81.0882 41.7794 81.0452 41.7835 81.002C41.7874 80.955 41.7913 80.951 41.7913 80.9236L41.8148 80.7281L41.8305 80.5947C41.8383 80.5477 41.8384 80.5437 41.8384 80.5163L41.8579 80.3126C41.8642 80.271 41.8694 80.2293 41.8735 80.1873C41.8735 80.1403 41.8814 80.1287 41.8814 80.1013C41.8932 80.0377 41.9023 79.9739 41.9088 79.9096L41.9244 79.7838V79.6978L41.948 79.5022L41.9559 79.3765C41.9559 79.3765 41.9636 79.3217 41.9636 79.2904L41.9753 79.0949L41.9872 78.9261L41.995 78.84L42.0106 78.6445L42.0224 78.4795L42.0302 78.3897L42.0459 78.1936L42.0577 78.0292L42.0655 77.9316L42.0811 77.7432L42.0928 77.5788C42.0938 77.546 42.0964 77.5132 42.1007 77.4808L42.1124 77.2852V77.1284V77.0266L42.1243 76.8387L42.132 76.6818V76.5843L42.1438 76.3959V76.2396L42.1517 76.1378L42.1595 75.9494L42.179 75.6874L42.1947 75.499V75.3427C42.1947 75.3427 42.2026 75.2796 42.2026 75.2365L42.2143 75.0486V74.8923V74.7861L42.2222 74.6021L42.2418 74.3401L42.2495 74.144L42.2613 73.9872L42.2652 73.8777L42.277 73.6898V73.533L42.2809 73.4274L42.2927 73.2395C42.2927 73.1494 42.2965 73.1218 42.3005 73.0826C42.3044 73.0435 42.3005 73.0118 42.3044 72.9727L42.3161 72.7848L42.324 72.6361V72.5266L42.3318 72.3382L42.3397 72.1895V72.0719L42.3474 71.8764L42.3514 71.7353L42.3593 71.6177V71.4337V71.285L42.3631 71.1673V70.9713L42.367 70.8346L42.371 70.717L42.3789 70.5291V70.2666L42.3866 70.0787L42.3906 69.9415V69.8239V69.636L42.3984 69.4949V69.3773L42.4062 69.1894V68.9231L42.4102 68.7271V68.4651L42.414 68.3279V68.1868C42.4171 68.1451 42.4184 68.1034 42.418 68.0616L42.4219 67.9124V67.7718C42.425 67.7301 42.4263 67.6879 42.4258 67.6461L42.4376 67.2311V66.9413C42.4415 66.8943 42.4415 66.8552 42.4415 66.8161V66.4006C42.441 66.3536 42.4423 66.3065 42.4454 66.2596V66.1109L42.4493 65.9818V65.5625L42.4532 65.4257V5.74725L32.5754 11.0428L37.8041 12.2098V63.2948C37.8002 63.3418 37.8003 63.3849 37.8003 63.4358V65.1355C37.7963 65.1825 37.7963 65.2219 37.7963 65.2689V65.5548L37.7924 65.692V65.8288L37.7884 65.9698V66.3891C37.7845 66.4361 37.7846 66.475 37.7846 66.522V66.6631C37.7807 66.7101 37.7807 66.7532 37.7807 66.8041V67.4228L37.7767 67.6265L37.7728 67.7522V67.8383V68.0419V68.4493L37.7611 68.7036V69.1464L37.7533 69.3424V69.7928L37.7493 69.9572L37.7454 70.0471V70.235L37.7375 70.3603V70.6347V70.7992V70.8853V71.0813L37.7337 71.2376L37.7297 71.3356V71.5235L37.7219 71.6804V71.7784L37.7141 71.9744C37.7141 72.0645 37.7101 72.0994 37.7062 72.1307V72.2326V72.4205V72.5773L37.6984 72.6791V72.867L37.6945 73.0238L37.6905 73.1295L37.6828 73.3174L37.6749 73.4742C37.6749 73.5212 37.671 73.5368 37.6671 73.5799V73.9246L37.6592 74.0303L37.6515 74.2263L37.6436 74.3831L37.6396 74.4926L37.6279 74.6767L37.62 74.8335L37.6122 74.9391L37.6005 75.127L37.5926 75.2839V75.3933L37.5809 75.5812L37.573 75.7381L37.5653 75.8475L37.5534 76.0359C37.5417 76.126 37.5417 76.1533 37.5417 76.1846L37.5378 76.3022L37.5261 76.4901L37.5144 76.6312V76.9367L37.5025 77.0854L37.4948 77.203L37.4869 77.3985L37.4752 77.5396V77.6572L37.4555 77.8413L37.4478 77.99V78.1076L37.4321 78.3036L37.4125 78.4446C37.4131 78.4852 37.4104 78.5259 37.4046 78.5661L37.3929 78.754L37.385 78.8912L37.3694 79.0165C37.3615 79.0635 37.3615 79.1066 37.3537 79.1575L37.342 79.2942V79.42C37.342 79.4591 37.3342 79.5175 37.3263 79.5605L37.3067 79.6978L37.2988 79.823C37.2988 79.823 37.2911 79.9093 37.2794 79.9602L37.2598 80.1013L37.2441 80.2265C37.2363 80.2657 37.2284 80.3243 37.2284 80.3752L37.2166 80.5125L37.201 80.6458C37.1943 80.6901 37.1891 80.7342 37.1853 80.7788L37.1736 80.9275L37.1579 81.057C37.1501 81.0962 37.1462 81.1548 37.1423 81.2057L37.1304 81.3468L37.1148 81.4801C37.1069 81.5271 37.107 81.5699 37.0991 81.6169L37.0874 81.7579L37.0678 81.887C37.0678 81.887 37.0599 81.9771 37.0482 82.0281L37.0248 82.1691L36.9935 82.4435L36.9739 82.5846L36.9543 82.7213L36.9386 82.8781L36.919 83.0154L36.9033 83.1526C36.9033 83.1526 36.8955 83.2503 36.8837 83.3013L36.8641 83.4385L36.8485 83.5752L36.8211 83.7163L36.8015 83.8573C36.7915 83.9039 36.7836 83.951 36.778 83.9983L36.7506 84.1394L36.727 84.2804C36.7192 84.3274 36.7192 84.3667 36.7074 84.4176L36.6801 84.5582L36.6331 84.8441L36.6095 84.9775L36.6018 85.0559L36.5704 85.2634L36.5234 85.5374L36.496 85.6784L36.4686 85.808C36.4569 85.8472 36.4608 85.859 36.453 85.8864L36.4137 86.0901L36.3863 86.2306L36.3628 86.3679L36.3353 86.5089L36.308 86.638C36.2962 86.6772 36.3001 86.6929 36.2923 86.7164L36.2531 86.9124L36.2257 87.0453L36.2101 87.1237L36.1631 87.3274C36.1514 87.3689 36.141 87.4106 36.1318 87.4527C36.124 87.4997 36.1161 87.5076 36.1082 87.5311V87.7271V87.8562C36.0926 87.8954 36.0926 87.907 36.0886 87.9423L36.0494 88.1383C36.0378 88.1798 36.0273 88.2215 36.0181 88.2636C36.0103 88.3106 36.0025 88.3222 35.9947 88.3496L35.9476 88.5456L35.9202 88.6709L35.8929 88.757L35.8458 88.953C35.834 89.0431 35.8184 89.0821 35.8067 89.1213C35.7949 89.1604 35.787 89.1721 35.7792 89.2073C35.7678 89.2732 35.7534 89.3388 35.7362 89.4034C35.7166 89.4504 35.7048 89.4895 35.6969 89.5286C35.6891 89.5678 35.6774 89.5872 35.6696 89.6185C35.65 89.7203 35.6304 89.7599 35.6226 89.8069C35.6148 89.8539 35.5951 89.893 35.5834 89.9322L35.556 90.0182L35.5089 90.2142L35.4698 90.3395C35.4581 90.3865 35.4502 90.3981 35.4424 90.4294C35.4189 90.5273 35.4032 90.5706 35.3837 90.6254C35.3719 90.7155 35.3524 90.7431 35.3367 90.7822C35.321 90.8214 35.317 90.8406 35.3092 90.8798L35.2426 91.0873L35.18 91.3029C35.157 91.3727 35.1361 91.4431 35.1174 91.5142C35.0899 91.5847 35.0703 91.6554 35.0468 91.7298L34.9803 91.9412C34.9576 92.0124 34.9327 92.0832 34.9058 92.153L34.8275 92.3643C34.8009 92.4355 34.7761 92.5075 34.753 92.5799L34.6747 92.7912L34.5963 93.0069L34.518 93.2182L34.4515 93.4142C34.4236 93.5021 34.3909 93.5881 34.3536 93.6724L34.2674 93.888L34.1773 94.0955L34.0833 94.3112C34.0442 94.3895 34.0324 94.4598 33.9972 94.5225C33.9708 94.5963 33.9394 94.668 33.9032 94.7376L33.7269 94.9533L33.6251 95.1689L33.5232 95.3802L33.4253 95.5915L33.3235 95.8033L33.2177 96.0185L33.1002 96.2303L32.8769 96.6529L32.7673 96.8686L32.6498 97.0799C32.608 97.1488 32.5688 97.2197 32.5323 97.2917L32.2817 97.7143L32.1563 97.93L32.0388 98.1413C31.9976 98.2137 31.9532 98.2846 31.9057 98.3531L31.7686 98.5644C31.7252 98.6385 31.6781 98.7107 31.6275 98.78L31.4866 98.9952L31.3495 99.207L31.2007 99.4183C31.1518 99.4902 31.1008 99.5606 31.0479 99.6296L30.8912 99.8453L30.7345 100.057C28.1339 103.582 24.8596 106.069 21.08 106.989L14.6645 106.217C18.9532 105.653 22.3803 103.108 24.9497 100.06L25.122 99.8491L25.3021 99.6335C25.3571 99.5621 25.4133 99.4917 25.4706 99.4221L25.7996 98.999L26.1129 98.6074L26.4105 98.1843L26.5555 97.973L26.7004 97.7574C26.7395 97.679 26.7944 97.6205 26.8414 97.546L26.9785 97.3347L27.2448 96.9116L27.3702 96.696C27.4094 96.6176 27.4563 96.5551 27.4955 96.4846L27.613 96.2733C27.6568 96.2048 27.6974 96.1339 27.7344 96.0615L27.8519 95.8464L27.9694 95.6346L28.0791 95.4232L28.1966 95.2119L28.3062 94.9963L28.412 94.785C28.412 94.785 28.4904 94.6437 28.5178 94.5693L28.6234 94.358L28.7253 94.1424C28.7585 94.0722 28.7938 94.003 28.8311 93.9349C28.8585 93.8565 28.8937 93.7941 28.929 93.7197C28.9578 93.6481 28.9892 93.5773 29.023 93.5079C29.0504 93.4296 29.0857 93.3671 29.1209 93.2966C29.1483 93.225 29.1783 93.1542 29.2109 93.0848L29.2971 92.8697L29.3872 92.6579L29.4655 92.4427L29.5439 92.2314L29.6301 92.0196L29.7084 91.8083C29.735 91.7371 29.7598 91.665 29.7829 91.5926C29.8101 91.523 29.8349 91.4526 29.8572 91.3813L29.9277 91.1657L29.9982 90.9582C30.0061 90.9112 30.0178 90.8954 30.0256 90.8602L30.0569 90.743C30.0765 90.6451 30.0961 90.6056 30.1079 90.5547L30.1471 90.4179L30.1784 90.2926C30.1862 90.2456 30.2175 90.1947 30.2253 90.1516C30.241 90.0537 30.2529 90.0533 30.2568 90.0259C30.2607 89.9984 30.2841 89.9399 30.2959 89.8968C30.3076 89.8537 30.3272 89.8066 30.3351 89.7596L30.382 89.6185L30.4134 89.4932C30.4251 89.4462 30.4526 89.3955 30.4526 89.3446L30.4918 89.2073L30.5309 89.0821L30.578 88.898L30.617 88.757L30.6445 88.6317C30.6524 88.5847 30.6719 88.5416 30.6836 88.4907L30.7228 88.3496C30.731 88.3076 30.7401 88.2659 30.7502 88.2243L30.8286 87.9423L30.856 87.8132C30.8756 87.7623 30.8873 87.7269 30.8952 87.676L30.9265 87.5349L30.9578 87.4097L31.0127 87.1237L31.04 86.9908C31.0479 86.9438 31.0636 86.9044 31.0675 86.8574L31.1262 86.5835C31.138 86.5443 31.1497 86.4934 31.1536 86.4424L31.1771 86.3052L31.2085 86.1642L31.236 86.0231L31.2594 85.8744L31.2869 85.7454L31.3142 85.6043L31.3338 85.4633L31.3887 85.1888L31.4121 85.0478L31.4395 84.9149L31.4631 84.7662L31.51 84.4803C31.51 84.4803 31.5179 84.3901 31.5336 84.3431L31.5532 84.202C31.561 84.155 31.561 84.1119 31.5728 84.061C31.5845 84.0101 31.5884 83.9709 31.5962 83.9199L31.6198 83.7789L31.6432 83.6422L31.6707 83.5011C31.6785 83.3836 31.6824 83.3836 31.6903 83.3601L31.7137 83.219C31.7137 83.219 31.7216 83.1172 31.7333 83.078L31.7529 82.9408L31.7686 82.7921L31.7921 82.651L31.8116 82.5138C31.8155 82.4668 31.8194 82.4275 31.8312 82.3766C31.8429 82.3257 31.8469 82.2869 31.8547 82.2399C31.8626 82.1929 31.8625 82.1928 31.8625 82.1615C31.8747 82.0927 31.8839 82.0235 31.89 81.954L31.9134 81.8244C31.9146 81.7981 31.9173 81.7724 31.9213 81.7465L31.9449 81.5504C31.9488 81.4995 31.9526 81.464 31.9644 81.417C31.9761 81.37 31.9683 81.3626 31.9722 81.3391L31.9879 81.1311C31.9939 81.0895 31.9991 81.0477 32.0036 81.0059C32.0075 80.9589 32.0114 80.9549 32.0114 80.9275L32.0349 80.7319C32.0413 80.6878 32.0439 80.643 32.0428 80.5985C32.0428 80.5515 32.0505 80.5475 32.0505 80.5201L32.078 80.3164V80.1912L32.0858 80.1051L32.0976 79.9096L32.1093 79.78C32.1093 79.7408 32.1171 79.7253 32.1171 79.6939L32.1328 79.4979L32.1407 79.3726L32.1484 79.2866L32.168 79.0906C32.1708 79.0487 32.1748 79.007 32.1799 78.9653L32.1876 78.8792L32.2033 78.6832V78.5187L32.2072 78.4289L32.2189 78.2328L32.2268 78.0684V77.9704L32.2385 77.7825L32.2464 77.618L32.2542 77.52L32.266 77.3244C32.266 77.2343 32.2738 77.1989 32.2738 77.1676C32.2738 77.1363 32.2778 77.0971 32.2817 77.0658L32.2895 76.8779L32.3012 76.7211V76.623L32.313 76.4351L32.3247 76.2788V76.177L32.3364 75.9886V75.8322V75.7261L32.3443 75.5382L32.3483 75.3819L32.3521 75.2757L32.3639 75.0878V74.8254L32.3717 74.6413C32.3769 74.5892 32.3796 74.5373 32.3796 74.4849L32.3874 74.3788C32.3901 74.3149 32.3915 74.2511 32.3913 74.1871L32.403 74.0303V73.9208L32.4109 73.7329L32.4187 73.5761L32.4226 73.4704C32.4254 73.4078 32.4268 73.3452 32.4266 73.2825L32.4345 73.1257L32.4383 73.0162V72.8278L32.4462 72.6791V72.5696V72.3817L32.4501 72.2326V72.115L32.4539 71.9194L32.4579 71.7784V71.6608L32.4618 71.4767V71.2104L32.4658 71.0225L32.4696 70.8853L32.4735 70.7676C32.4763 70.705 32.4777 70.6424 32.4775 70.5797V70.4425C32.4806 70.4008 32.482 70.3591 32.4814 70.3173C32.4815 70.2702 32.4841 70.2231 32.4892 70.1762V69.918L32.4971 69.7301V69.4677L32.501 69.2793V69.013L32.5049 68.8174V68.5588C32.5076 68.4975 32.5089 68.4361 32.5088 68.3747V67.9597C32.507 67.9127 32.5083 67.8655 32.5127 67.8187V67.5524L32.5167 67.4113V67.1369V66.9882V66.8629V66.7219V65.4688L32.5205 65.3196V11.0935L22.8073 16.2948L27.9302 17.4423L27.9224 63.3182C27.9185 63.3652 27.9185 63.4084 27.9185 63.4593V63.8824C27.9146 63.9294 27.9145 63.9725 27.9145 64.0234V65.4802L27.9107 65.6175V65.8914C27.9068 65.9384 27.9068 65.9894 27.9068 66.0325V66.4479L27.9028 66.5808V66.7219C27.8989 66.7689 27.8989 66.812 27.8989 66.8629L27.8949 66.9882V67.0666V67.2741V67.4032V67.6853L27.8911 67.8105V68.1008C27.8872 68.1478 27.8872 68.179 27.8872 68.226V68.7625L27.8832 68.9585L27.8793 69.1268L27.8754 69.2128L27.8715 69.4089V69.5733L27.8676 69.6632L27.8636 69.8592L27.8598 70.0237L27.8558 70.1136V70.7131L27.8519 70.8776L27.848 70.9637L27.8402 71.1597L27.8362 71.316L27.8323 71.414L27.8245 71.6019V72.0523V72.2091V72.311L27.8166 72.4989L27.8089 72.6557L27.8049 72.7575C27.8033 72.8203 27.7993 72.8829 27.7931 72.9454L27.7893 73.1022C27.7893 73.1022 27.7892 73.1727 27.7814 73.2079L27.7736 73.3958L27.7697 73.5526L27.7657 73.6583V73.8462L27.7579 74.003L27.7501 74.1087L27.7422 74.3047L27.7383 74.461L27.7305 74.571L27.7227 74.7551L27.7109 74.9119V75.0176L27.7031 75.2131L27.6914 75.3699L27.6874 75.4794L27.6756 75.6678L27.6639 75.8241L27.6599 75.9341V76.122L27.6522 76.2707L27.6443 76.3883L27.6365 76.5762L27.6247 76.7172V76.8348L27.613 77.0227L27.6012 77.1714V77.289V77.4851L27.5895 77.6261L27.5816 77.7432L27.5738 77.9273L27.562 78.0765L27.5543 78.1936L27.5386 78.3897V78.6483L27.5268 78.8362L27.5151 78.9734C27.5112 79.0008 27.5072 79.0517 27.5072 79.0987C27.5072 79.1457 27.4955 79.1888 27.4955 79.2397L27.4838 79.3765C27.4798 79.4039 27.4759 79.463 27.4759 79.5022C27.4759 79.5414 27.468 79.5997 27.4602 79.6428L27.4485 79.78V79.9053L27.4328 80.0425L27.4132 80.1835V80.3088C27.4113 80.3587 27.4061 80.4083 27.3976 80.4575L27.378 80.5947L27.3623 80.7281C27.3545 80.7751 27.3506 80.814 27.3506 80.861L27.331 81.0097L27.3231 81.1354C27.3231 81.1824 27.3114 81.2332 27.3114 81.2841L27.2918 81.4252L27.2761 81.5581L27.2526 81.6953L27.2331 81.8363C27.2331 81.8363 27.2253 81.9263 27.2135 81.9654C27.2047 82.0147 27.1981 82.0647 27.1939 82.1146L27.1743 82.2556L27.1586 82.3924C27.1586 82.3924 27.1508 82.4826 27.139 82.5296L27.1194 82.6668L27.1038 82.8036L27.0804 82.9527L27.0607 83.0895L27.0372 83.2267L27.0138 83.3754L26.9942 83.5164L26.9706 83.6536C26.955 83.7085 26.9472 83.7477 26.9433 83.7947L26.9237 83.9357L26.9001 84.0768C26.8911 84.1234 26.8846 84.1705 26.8806 84.2178L26.8571 84.3588L26.8297 84.4956L26.7748 84.7815C26.7709 84.8285 26.7591 84.8677 26.7513 84.9225L26.7239 85.0559C26.72 85.1029 26.7161 85.1069 26.7083 85.1343L26.6691 85.338L26.6455 85.4747L26.5908 85.7607C26.5791 85.8034 26.5686 85.8468 26.5595 85.8902L26.5437 85.9686L26.4967 86.1723L26.4693 86.321C26.4537 86.4385 26.4459 86.4386 26.442 86.4582L26.4145 86.5988C26.4145 86.5988 26.391 86.6853 26.3871 86.7283C26.3832 86.7714 26.3792 86.7833 26.3675 86.8068L26.3205 87.0023V87.1357C26.3048 87.1827 26.3048 87.1867 26.3009 87.2141L26.25 87.4178L26.2108 87.543C26.2108 87.543 26.2029 87.598 26.1912 87.6215L26.1403 87.817L26.1012 87.9466L26.0776 88.0326C26.0581 88.0875 26.058 88.1343 26.0541 88.1421C26.0463 88.1891 26.0346 88.197 26.0267 88.2205L25.9797 88.3458C25.9641 88.385 25.9601 88.4044 25.9562 88.4318L25.8975 88.6279L25.8583 88.7531C25.8583 88.7531 25.8387 88.8118 25.8348 88.8392L25.7761 89.0352L25.7291 89.2035C25.7291 89.2035 25.7056 89.2545 25.6978 89.2819L25.6429 89.4779C25.6194 89.525 25.6038 89.564 25.5959 89.6032C25.5881 89.6424 25.5723 89.6618 25.5645 89.6931C25.5371 89.791 25.5175 89.834 25.4979 89.881L25.447 90.0106C25.4274 90.0497 25.4275 90.0731 25.4196 90.0966L25.357 90.2926C25.34 90.3339 25.3244 90.3757 25.31 90.4179C25.3022 90.4649 25.2865 90.4765 25.2708 90.5078L25.2043 90.7038C25.1808 90.7939 25.1651 90.821 25.1533 90.8602C25.1416 90.8993 25.1259 90.919 25.1141 90.9582C25.0913 91.0281 25.0666 91.0972 25.0398 91.1657L24.9614 91.3813L24.8752 91.5926L24.789 91.8083L24.703 92.0196L24.6049 92.2314C24.5658 92.3019 24.5502 92.38 24.5149 92.4427C24.4797 92.5054 24.4561 92.5913 24.4209 92.6579C24.3856 92.7244 24.3583 92.7992 24.3269 92.8697L24.2251 93.0848L24.1272 93.2966L24.0214 93.5079C23.9849 93.5778 23.9496 93.6486 23.9156 93.7197L23.8098 93.9349L23.7002 94.1424L23.5905 94.358L23.473 94.5693C23.4354 94.642 23.3963 94.714 23.3555 94.785L23.238 94.9963L23.1205 95.2119C23.0892 95.2785 23.0344 95.3527 22.9913 95.4232L22.8621 95.6346L22.7288 95.8464L22.5957 96.0615L22.4548 96.2733L22.3098 96.4846L22.1689 96.696L22.0122 96.9116L21.8555 97.1229L21.5265 97.546C21.4678 97.6087 21.409 97.6869 21.3542 97.7574L21.1779 97.973L20.9977 98.1843L20.8137 98.3961L20.6179 98.6074L20.422 98.8231L20.2144 99.0382L20.0029 99.25L19.7757 99.4613L19.5407 99.6727L19.3057 99.8883L19.0551 100.1C18.0455 100.945 16.9035 101.619 15.6749 102.093L8.93828 101.286C8.41991 101.286 7.90251 101.243 7.39124 101.157C8.28424 103.875 10.407 105.779 12.6669 106.143C13.4659 108.337 15.5653 110.256 17.8096 110.781C19.5838 113.789 22.6662 115.343 26.0267 115.48C30.6014 115.676 34.3223 113.679 37.8864 111.309C41.7248 108.646 44.6623 104.862 46.8674 100.096L46.9653 99.8845L47.0554 99.6688L47.1533 99.4575C47.1821 99.3859 47.2134 99.3151 47.2472 99.2457C47.2767 99.1744 47.3081 99.1041 47.3413 99.0344L47.4352 98.8192L47.5254 98.6036L47.6154 98.3923L47.6938 98.1805L47.7838 97.9692C47.8229 97.8987 47.8347 97.8279 47.87 97.7535L47.9484 97.5422L48.0345 97.3309L48.1911 96.9078C48.2185 96.8451 48.2381 96.7665 48.2616 96.6921L48.4183 96.2695C48.4414 96.1979 48.4675 96.127 48.4966 96.0577L48.5672 95.8425L48.7082 95.4194L48.7748 95.2076L48.8452 94.9925C48.8684 94.9223 48.8907 94.852 48.9119 94.7811L48.9823 94.5655L49.0489 94.3542L49.1116 94.1386L49.1742 93.9311C49.1919 93.8587 49.2115 93.7867 49.233 93.7154L49.2996 93.5041L49.3583 93.2928L49.4209 93.081C49.4444 93.0183 49.4602 92.9324 49.4797 92.8658L49.5346 92.654L49.5933 92.4389C49.6076 92.3674 49.626 92.2965 49.6482 92.2271L49.6991 92.0158C49.7148 91.9442 49.7343 91.8738 49.7578 91.8044L49.8126 91.5888L49.8675 91.3775L49.9145 91.1618L49.9654 90.9543L49.985 90.8563L50.0124 90.7387L50.0516 90.5508L50.0908 90.4098L50.1181 90.2845C50.126 90.2375 50.1456 90.1944 50.1573 90.1435C50.1769 90.0456 50.1847 90.0342 50.1964 90.0067C50.2046 89.9647 50.2138 89.9226 50.2239 89.881C50.2357 89.834 50.2552 89.7952 50.2552 89.7443L50.2866 89.6032L50.3101 89.4779C50.3179 89.431 50.3414 89.38 50.3492 89.3369L50.3767 89.1997C50.3848 89.1577 50.3939 89.116 50.404 89.0744L50.4354 88.8904L50.4589 88.7493L50.4863 88.6202C50.498 88.5732 50.5137 88.5301 50.5176 88.4792L50.5451 88.342L50.5725 88.2129C50.5842 88.1737 50.5881 88.1149 50.6038 88.0718L50.6313 87.9308L50.6547 87.8012C50.6625 87.7503 50.6743 87.7154 50.686 87.6645L50.7096 87.5234C50.7177 87.4815 50.7268 87.4397 50.7369 87.3982L50.7918 87.1123L50.8467 86.846L50.8702 86.6968L50.8976 86.5677L50.9249 86.4267L50.9485 86.2894L50.972 86.1484L50.9955 86.0117L51.019 85.8548L51.0424 85.7258L51.066 85.5847L51.113 85.3103C51.1183 85.2642 51.1261 85.2188 51.1365 85.1735L51.1599 85.0325L51.1835 84.8991L51.254 84.5075C51.254 84.5075 51.2618 84.4173 51.2774 84.3703L51.3166 84.0882C51.3257 84.0416 51.3322 83.9945 51.3362 83.9472L51.3598 83.8066C51.3676 83.7596 51.3676 83.7203 51.3754 83.6694L51.4028 83.5284L51.4224 83.3911L51.4498 83.2501L51.4655 83.1134L51.4851 82.9723C51.4929 82.9253 51.4929 82.8741 51.5047 82.8232C51.5164 82.7722 51.5125 82.733 51.5243 82.6821L51.536 82.5454L51.5595 82.4082L51.5752 82.2709L51.5908 82.1925L51.63 81.8559L51.6457 81.7775L51.6691 81.582L51.6887 81.4486L51.6966 81.3702L51.724 81.1627L51.7396 81.0374C51.7475 80.9983 51.7475 80.9864 51.7475 80.959L51.771 80.763L51.7866 80.6301C51.7878 80.6038 51.7904 80.5776 51.7945 80.5517C51.8141 80.4459 51.814 80.395 51.8179 80.348L51.8336 80.2227C51.8414 80.1757 51.8415 80.1641 51.8415 80.1367L51.8611 79.9406C51.8671 79.899 51.8723 79.8572 51.8767 79.8154L51.8845 79.7293C51.8888 79.665 51.8967 79.6006 51.9081 79.5371L51.9237 79.4118C51.9315 79.3648 51.9277 79.3571 51.9277 79.3258L51.9512 79.1298L51.959 79.0045L51.9669 78.9184L51.9825 78.7224L51.9903 78.5579L51.9982 78.4681L52.0138 78.272L52.0256 78.1076C52.0265 78.0748 52.0291 78.042 52.0334 78.0096L52.0569 77.8217L52.0648 77.6572C52.0657 77.6244 52.0682 77.5917 52.0725 77.5592L52.0844 77.3636L52.0961 77.2068L52.1038 77.105V76.6622L52.1234 76.4743L52.1313 76.3175L52.1391 76.2157L52.1509 76.0278L52.1627 75.8715C52.1627 75.8715 52.1705 75.8084 52.1705 75.7653L52.19 75.5774C52.19 75.4873 52.194 75.4598 52.1979 75.4206L52.2057 75.3149V75.127V74.9702L52.2096 74.8646V74.6805L52.2213 74.5241C52.2213 74.5241 52.2292 74.4611 52.2292 74.418C52.2378 74.3531 52.2417 74.2879 52.2409 74.2225L52.2528 74.0656L52.2605 73.9562L52.2723 73.7678L52.2919 73.5058L52.3037 73.3174L52.3115 73.1611L52.3194 73.0511V72.8632V72.7145L52.3271 72.6045L52.335 72.4166V72.2679L52.3428 72.1503L52.3467 71.9548L52.3546 71.8137L52.3624 71.6961L52.3703 71.5121L52.382 71.3634L52.3859 71.2458L52.3899 71.0497V70.913V70.7954C52.3927 70.7327 52.3939 70.6702 52.3937 70.6075L52.4016 70.4664L52.4094 70.3407L52.4172 70.1528C52.4155 70.1071 52.4168 70.0616 52.4212 70.0161V69.8984L52.429 69.7105L52.4368 69.5695V69.4519C52.4396 69.3893 52.4409 69.3267 52.4408 69.264C52.4456 69.2171 52.4481 69.17 52.4486 69.123L52.4525 68.9977V68.8017L52.4603 68.6644V68.5392L52.4682 68.402V68.2614L52.4721 68.1357L52.4799 67.8459L52.4838 67.7207C52.487 67.6737 52.4883 67.6266 52.4878 67.5796V67.4386C52.4917 67.3916 52.4916 67.3526 52.4916 67.3095L52.4955 67.1684L52.4995 67.0197L52.5034 66.8945V66.479L52.5074 66.338V66.1893L52.5112 66.0602V65.9191L52.5151 65.7819V65.0767L52.5191 64.9438V64.5522L52.523 64.415V64.0234L52.5269 63.8743V63.0323C52.5293 62.9854 52.5307 62.9383 52.5308 62.8913V0.538254L42.5041 5.91554L42.6177 5.80988ZM64.3826 41.6905H73.626V42.8968C71.1272 43.0534 70.896 43.5236 70.896 45.5211V62.1277C70.896 65.7115 72.9328 67.56 75.7841 67.56C79.0545 67.56 81.0598 65.4842 81.0598 62.0493V45.9127C81.0598 43.9073 80.441 43.0613 78.0949 42.8968V41.6905H85.47V42.8968C83.12 43.0534 82.5051 43.9034 82.5051 45.9127V61.2074C82.5051 65.9857 80.4057 68.7782 75.0516 68.7782C69.6662 68.7782 67.1204 65.8719 67.1204 61.0544V45.5249C67.1204 43.5666 66.8933 43.0573 64.3905 42.9006V41.6943L64.3826 41.6905ZM84.9921 68.0926V66.9179C86.8408 66.8396 87.4596 66.1422 87.4596 64.9868V52.939C87.4596 51.2783 86.9975 51.0084 84.9138 50.9261V49.7509L90.5342 49.5238V53.2211H90.6125C91.6544 51.0591 93.1662 49.2886 95.8021 49.2886C99.006 49.2886 100.502 51.3647 100.502 54.7644V65.026C100.502 66.3381 101.043 66.8788 102.852 66.9571V68.1318H97.1769V54.4158C97.1769 51.87 96.2056 51.0241 94.8896 51.0241C92.8333 51.0241 90.7379 53.7654 90.7379 57.5059V64.9476C90.7379 66.103 91.3567 66.8004 93.2211 66.8787V68.0534H84.9647L84.9921 68.0926ZM103.737 68.0534V66.8787C105.578 66.8004 106.205 66.103 106.205 64.9476V52.665C106.205 51.0043 105.747 50.7378 103.737 50.6555V49.4808L109.51 49.2456V64.983C109.51 66.1384 110.125 66.8353 111.978 66.9136V68.0888L103.737 68.0534ZM109.51 43.6723C109.51 45.1371 108.704 46.1398 107.552 46.1398C106.401 46.1398 105.594 45.1332 105.594 43.6723C105.594 42.2113 106.397 41.2048 107.552 41.2048C108.708 41.2048 109.51 42.2035 109.51 43.6723ZM117.97 42.5482V49.5984H122.592V51.0476H117.97V64.6383C117.97 66.3381 118.558 66.9882 119.596 66.9882C120.873 66.9882 121.844 66.1776 121.844 62.0847V61.0037H123.019V62.821C123.019 66.722 121.609 68.4373 118.711 68.4373C116.165 68.4373 114.63 66.8393 114.63 63.749V51.0045H112.28V49.8294C115.053 48.6739 116.51 47.3616 116.745 42.4344H117.974" fill="#999999"/>
<path d="M128.138 57.2743C128.138 52.3158 129.607 50.3733 131.812 50.3733C133.837 50.3733 134.992 52.3158 134.992 57.2743H128.138ZM138.764 58.7235C138.764 53.1696 136.07 49.167 131.793 49.167C127.484 49.167 124.359 53.1619 124.359 58.8411C124.359 63.6664 127.515 68.5151 132.294 68.5151C136.641 68.5151 138.521 65.1743 138.858 61.7394L137.683 61.5041C137.292 64.1283 136.101 67.066 132.736 67.066C130.151 67.066 128.177 64.1285 128.177 58.7235H138.803" fill="#999999"/>
<path d="M144.463 58.9196C144.463 52.9741 145.853 50.5771 147.964 50.5771C150.314 50.5771 151.736 53.4363 151.736 58.9196C151.736 65.5662 149.699 67.2621 147.663 67.2621C145.704 67.2621 144.467 64.8651 144.467 58.9196H144.463ZM149.241 42.7438C151.2 42.8221 151.74 43.1354 151.74 44.7021V51.6151L151.662 51.6538C150.89 50.1537 149.586 49.0888 147.776 49.0888C143.734 49.0888 140.726 53.2404 140.726 58.8804C140.726 64.9434 143.926 68.4761 147.385 68.4761C149.735 68.4761 151.004 67.1445 151.85 65.3311H151.928V68.0099L157.317 67.7828V66.6076C155.778 66.6468 155.085 66.0282 155.085 63.9445V41.3453L149.273 41.5805V42.7868L149.241 42.7438ZM159.064 67.9707V66.796C161.414 66.6393 161.759 66.1809 161.759 64.1716V45.3638C161.759 43.4055 161.367 42.8961 159.064 42.7395V41.5332H168.378V42.7395C166.028 42.8961 165.531 43.3663 165.531 45.3638V53.3697H173.834V45.3638C173.834 43.4055 173.376 42.8961 170.994 42.7395V41.5332H180.304V42.7395C177.954 42.8961 177.61 43.3663 177.61 45.3638V64.1716C177.61 66.1848 177.993 66.6472 180.304 66.796V67.9707H170.994V66.796C173.376 66.6393 173.834 66.1809 173.834 64.1716V54.8189H165.531V64.1716C165.531 66.1848 165.993 66.6472 168.378 66.796V67.9707H159.06H159.064ZM184.244 57.2783C184.244 52.3198 185.713 50.3773 187.918 50.3773C189.943 50.3773 191.099 52.3198 191.099 57.2783H184.244ZM194.87 58.7274C194.87 53.1736 192.176 49.171 187.899 49.171C183.59 49.171 180.465 53.1659 180.465 58.845C180.465 63.6704 183.626 68.5191 188.4 68.5191C192.708 68.5191 194.667 65.1783 194.964 61.7433L193.789 61.5086C193.398 64.1328 192.203 67.0699 188.843 67.0699C186.25 67.0699 184.284 64.1324 184.284 58.7274H194.91H194.87ZM205.982 60.3841C205.982 64.7512 204.2 67.0661 202.23 67.0661C201.031 67.0661 200.107 66.0594 200.107 64.011C200.107 60.7328 202.849 59.264 205.982 58.136V60.3841ZM211.199 62.7345C211.121 65.4761 210.819 66.369 210.09 66.369C209.554 66.369 209.288 65.8674 209.288 64.7511V54.0118C209.288 51.1135 207.631 49.1672 203.315 49.1672C199.958 49.1672 197.494 51.2309 197.494 53.855C197.494 55.4021 198.266 56.1738 199.343 56.1738C200.42 56.1738 201.27 55.3238 201.27 53.9334C201.27 52.8093 200.879 51.8851 199.653 51.7676C200.459 50.808 201.611 50.3773 202.931 50.3773C204.975 50.3773 205.986 51.3444 205.986 53.5103V56.6438C202.657 57.8776 196.566 59.699 196.566 64.1014C196.566 66.6472 198.297 68.4096 201.266 68.4096C204.008 68.4096 205.128 67.1561 206.064 65.4171H206.142C206.377 67.493 207.411 68.4096 209.26 68.4096C211.626 68.4096 212.421 66.6941 212.421 62.6364H211.246L211.199 62.7345ZM212.813 68.0415V66.8663C214.661 66.7879 215.28 66.091 215.28 64.9395V44.8938C215.28 43.5817 214.626 42.8887 212.734 42.8064V41.6312L218.59 41.4041V64.9744C218.59 66.1259 219.204 66.8233 221.057 66.9017V68.0764H212.816L212.813 68.0415ZM227.281 42.5401V49.5898H231.91V51.039H227.281V64.6302C227.281 66.33 227.868 66.9801 228.906 66.9801C230.183 66.9801 231.15 66.169 231.15 62.0761V60.9951H232.325V62.8124C232.325 66.7134 230.915 68.4292 228.017 68.4292C225.471 68.4292 223.936 66.8311 223.936 63.7409V50.9959H221.586V49.8212C224.359 48.6658 225.816 47.3535 226.051 42.4263H227.285L227.281 42.5401ZM233.379 68.0415V66.8663C235.228 66.7879 235.846 66.0911 235.846 64.9357V44.8116C235.846 43.1588 235.384 42.8533 233.301 42.8533V41.647L239.152 41.4118V52.7114H239.23C240.006 51.0155 241.479 49.2451 244.075 49.2451C247.052 49.2451 248.893 51.3212 248.893 54.7209V64.9825C248.893 66.1379 249.547 66.8348 251.243 66.9131V68.0883H245.548V54.576C245.548 51.8343 244.581 50.9845 243.186 50.9845C241.248 50.9845 239.113 53.5301 239.113 57.2352V64.951C239.113 66.1064 239.74 66.8037 241.592 66.882V68.0572H233.336L233.379 68.0415ZM275.228 41.5648V51.748H274.053C273.051 45.2855 271.429 42.3637 267.799 42.3637C264.755 42.3637 261.932 44.9016 261.932 54.7481C261.932 64.2265 264.673 67.1641 267.799 67.1641C270.423 67.1641 271.817 65.4644 271.817 60.8976C271.817 56.8791 271.237 56.264 268.186 56.1112V54.936H278.44V56.1112C276.09 56.2679 275.593 56.7263 275.593 58.7356V67.9984H274.359C273.897 67.1485 273.513 66.5297 273.125 66.5297C272.624 66.5297 272.577 67.0308 271.077 67.8024C270.074 68.339 268.805 68.6052 267.603 68.6052C262.582 68.6052 257.603 63.7606 257.603 54.7405C257.603 46.9737 262.241 40.9145 267.72 40.9145C269.107 40.9145 270.462 41.3337 271.653 42.0113C272.436 42.4696 272.738 42.8141 273.082 42.8141C273.474 42.8141 273.74 42.3518 274.05 41.5136H275.225L275.228 41.5648ZM279.298 68.0453V66.8701C280.915 66.7918 281.53 66.0949 281.53 64.9395V54.4426C281.53 51.8106 281.068 50.9648 279.18 50.8864V49.7113L284.492 49.4841V53.9373H284.57C285.067 51.9319 286.458 49.2494 288.78 49.2494C290.202 49.2494 291.588 50.4241 291.588 52.5861C291.588 54.2507 290.778 55.0928 289.787 55.0928C288.937 55.0928 288.052 54.5525 288.052 52.8213C288.052 51.8931 288.588 50.9256 289.708 50.9256C289.513 50.6241 289.133 50.4633 288.702 50.4633C286.078 50.5025 284.879 56.1424 284.879 59.5029V64.9863C284.879 66.1418 285.498 66.8391 288.122 66.9174V68.0921H279.333L279.298 68.0453ZM295.901 58.8412C295.901 52.1555 297.44 50.3811 299.606 50.3811C301.772 50.3811 303.315 52.1594 303.315 58.8412C303.315 65.523 301.764 67.3009 299.606 67.3009C297.448 67.3009 295.901 65.523 295.901 58.8412ZM292.356 58.8412C292.356 64.7162 295.975 68.5153 299.602 68.5153C303.229 68.5153 306.848 64.677 306.848 58.8412C306.848 53.0054 303.229 49.1672 299.602 49.1672C295.975 49.1672 292.356 53.0054 292.356 58.8412ZM324.943 67.8493L319.745 68.0764V64.6144H319.667C318.707 66.886 317.317 68.5468 314.626 68.5468C311.395 68.5468 309.809 66.8898 309.809 63.071V52.8878C309.809 51.2271 309.347 50.9567 307.655 50.8745V49.6998L313.122 49.4722V63.8073C313.122 66.1573 314.047 66.8232 315.316 66.8232C317.509 66.8232 319.322 63.7684 319.322 60.5724V52.9347C319.322 51.274 318.86 51.0041 316.894 50.9218V49.7466L322.632 49.5195V64.7865C322.632 66.2905 323.282 66.6392 324.982 66.7176V67.8923L324.943 67.8493ZM330.924 59.6908C330.924 53.1226 332.882 50.7296 334.84 50.7296C336.799 50.7296 338.189 53.1266 338.189 59.0721C338.189 64.9471 336.806 67.4147 334.77 67.4147C333.191 67.4147 330.92 65.6364 330.92 59.687L330.924 59.6908ZM333.771 75.1538V73.9791C331.538 73.9008 330.924 73.2075 330.924 72.0208V66.1458H331.002C331.77 67.5714 333.039 68.6329 335.036 68.6329C339.227 68.6329 341.969 64.3247 341.969 58.9588C341.969 55.0147 339.775 49.2843 335.389 49.2843C332.929 49.2843 331.354 51.0391 330.767 52.8878H330.689V49.2843L325.147 49.5195V50.6942C327.105 50.7726 327.614 51.0861 327.614 52.7037V71.9816C327.614 73.137 326.999 73.8302 325.147 73.9399V75.1151H333.771" fill="#999999"/>
</svg>
